<svg xmlns="http://www.w3.org/2000/svg" viewBox="0 0 99 54"><defs><style>.cls-1{fill:#540b2a;}.cls-2{fill:#fff;}</style></defs><g id="Layer_2" data-name="Layer 2"><g id="Layer_1-2" data-name="Layer 1"><rect class="cls-1" width="99" height="54"/><path class="cls-2" d="M45.86426,24.084H39.56445L38.32227,27H35.91016l5.66992-12.6001h2.30371L49.57227,27H47.124Zm-.77442-1.83593-2.376-5.50782-2.35742,5.50782Z"/><path class="cls-2" d="M51.55176,26.81982a5.7345,5.7345,0,0,1-1.78223-.77392l.86426-1.71a5.54734,5.54734,0,0,0,1.55664.69287,6.46056,6.46056,0,0,0,1.791.26123q2.01563,0,2.0166-1.062a.71071.71071,0,0,0-.51367-.70215,8.87286,8.87286,0,0,0-1.64649-.37793,13.28964,13.28964,0,0,1-1.93555-.41406,2.96693,2.96693,0,0,1-1.29589-.81885,2.28582,2.28582,0,0,1-.54883-1.62891,2.56083,2.56083,0,0,1,1.14258-2.187,5.20531,5.20531,0,0,1,3.08789-.81933,8.917,8.917,0,0,1,1.97949.22509,5.56208,5.56208,0,0,1,1.62012.603l-.86426,1.71a5.33593,5.33593,0,0,0-2.75391-.71973,3.04868,3.04868,0,0,0-1.50293.29688.88585.88585,0,0,0-.51269.7832.78127.78127,0,0,0,.54882.76465,8.71068,8.71068,0,0,0,1.70118.42334,13.19164,13.19164,0,0,1,1.88964.41358,2.96813,2.96813,0,0,1,1.26954.792,2.21119,2.21119,0,0,1,.53027,1.584,2.50563,2.50563,0,0,1-1.16992,2.16016,5.516,5.516,0,0,1-3.18555.81006A8.60167,8.60167,0,0,1,51.55176,26.81982Z"/><path class="cls-2" d="M65.916,26.478a2.64745,2.64745,0,0,1-.9629.48584,4.34229,4.34229,0,0,1-1.19726.16211,3.39311,3.39311,0,0,1-2.44727-.82813,3.18549,3.18549,0,0,1-.86425-2.41162V19.25977h-1.584V17.46h1.584v-2.1958h2.25V17.46h2.57421v1.79981H62.69434V23.832a1.51756,1.51756,0,0,0,.34179,1.0708,1.28206,1.28206,0,0,0,.99024.36914,1.97521,1.97521,0,0,0,1.25976-.396Z"/><path class="cls-2" d="M73.332,17.27979v2.14209a2.89121,2.89121,0,0,0-.52246-.05372,2.71808,2.71808,0,0,0-2.05176.76465,3.05082,3.05082,0,0,0-.73828,2.20508V27h-2.25V17.38818h2.14258V18.792A3.749,3.749,0,0,1,73.332,17.27979Z"/><path class="cls-2" d="M82.10742,18.29688a3.93541,3.93541,0,0,1,1.125,3.06933V27h-2.124V25.83008a2.62117,2.62117,0,0,1-1.17969.96289,4.60449,4.60449,0,0,1-1.84473.333,4.51815,4.51815,0,0,1-1.88964-.36914,2.9167,2.9167,0,0,1-1.251-1.02588,2.59717,2.59717,0,0,1-.44141-1.48487,2.546,2.546,0,0,1,.96289-2.0791,4.78275,4.78275,0,0,1,3.03321-.7832h2.48437v-.14356a1.96919,1.96919,0,0,0-.60351-1.54834,2.61023,2.61023,0,0,0-1.791-.54,5.18111,5.18111,0,0,0-1.59277.252,3.92516,3.92516,0,0,0-1.32324.70215L74.79,18.46777a5.45892,5.45892,0,0,1,1.81836-.88183,8.09823,8.09823,0,0,1,2.25-.30615A4.69126,4.69126,0,0,1,82.10742,18.29688Zm-2.05273,6.80419a2.10707,2.10707,0,0,0,.92773-1.10693V22.87793H78.66016q-1.94385,0-1.94434,1.27783a1.14664,1.14664,0,0,0,.48633.97217,2.22531,2.22531,0,0,0,1.34961.35986A2.89944,2.89944,0,0,0,80.05469,25.10107Z"/><path class="cls-2" d="M10.21094,39.084a1.81166,1.81166,0,0,1-.70215-.67871,1.98806,1.98806,0,0,1,0-1.94433,1.8063,1.8063,0,0,1,.70508-.67871,2.0632,2.0632,0,0,1,1.00683-.2461,2.09056,2.09056,0,0,1,.79492.14551,1.62933,1.62933,0,0,1,.61524.43164l-.34473.334a1.38271,1.38271,0,0,0-1.04394-.43946,1.50968,1.50968,0,0,0-.74805.18555,1.34443,1.34443,0,0,0-.52148.51074,1.50407,1.50407,0,0,0,0,1.458,1.34443,1.34443,0,0,0,.52148.51074,1.50957,1.50957,0,0,0,.74805.18555,1.38848,1.38848,0,0,0,1.04394-.44434l.34473.333a1.64232,1.64232,0,0,1-.61816.43457,2.075,2.075,0,0,1-.79688.14844A2.053,2.053,0,0,1,10.21094,39.084Z"/><path class="cls-2" d="M13.64746,39.13477a1.34706,1.34706,0,0,1-.52148-.51172,1.544,1.544,0,0,1,0-1.47852,1.32,1.32,0,0,1,.52148-.50879,1.54035,1.54035,0,0,1,.75293-.18359,1.52364,1.52364,0,0,1,.75.18359,1.33423,1.33423,0,0,1,.51953.50879,1.5511,1.5511,0,0,1,0,1.47852,1.362,1.362,0,0,1-.51953.51172,1.51433,1.51433,0,0,1-.75.18554A1.53093,1.53093,0,0,1,13.64746,39.13477ZM14.88477,38.75a.87357.87357,0,0,0,.33691-.34961,1.15416,1.15416,0,0,0,0-1.0332.85633.85633,0,0,0-.33691-.34766,1.024,1.024,0,0,0-.96973,0,.87984.87984,0,0,0-.33887.34766,1.13,1.13,0,0,0,0,1.0332A.898.898,0,0,0,13.915,38.75a1.00288,1.00288,0,0,0,.96973,0Z"/><path class="cls-2" d="M18.91406,36.7627a1.22146,1.22146,0,0,1,.31543.90918v1.61621H18.7207v-1.5586a.86114.86114,0,0,0-.19629-.61426.73859.73859,0,0,0-.56152-.207.878.878,0,0,0-.65234.24121.94223.94223,0,0,0-.23828.69141v1.44727h-.50879v-2.8086h.4873v.42383a.98074.98074,0,0,1,.416-.334,1.449,1.449,0,0,1,.59668-.11719A1.15958,1.15958,0,0,1,18.91406,36.7627Z"/><path class="cls-2" d="M20.31543,39.22754a1.46132,1.46132,0,0,1-.498-.23633l.21192-.40234a1.55831,1.55831,0,0,0,.45117.21191,1.85931,1.85931,0,0,0,.53515.0791q.668,0,.668-.38183a.24738.24738,0,0,0-.09082-.20117.55455.55455,0,0,0-.22461-.1084c-.09082-.02344-.21875-.04883-.38476-.07715a3.772,3.772,0,0,1-.55371-.12207.8561.8561,0,0,1-.36817-.23242.65146.65146,0,0,1-.15332-.46192.71854.71854,0,0,1,.31739-.61133,1.41958,1.41958,0,0,1,.85351-.23144,2.35127,2.35127,0,0,1,.56152.06933,1.49661,1.49661,0,0,1,.46094.18555l-.21679.40235a1.46107,1.46107,0,0,0-.81153-.22266.93988.93988,0,0,0-.49219.10644.31925.31925,0,0,0-.16992.28125.26711.26711,0,0,0,.09571.2168.61272.61272,0,0,0,.23535.11719c.09375.02441.22558.05273.39551.084a4.36167,4.36167,0,0,1,.54785.125.81933.81933,0,0,1,.3584.22559.62634.62634,0,0,1,.14843.44433.704.704,0,0,1-.32617.60743,1.53955,1.53955,0,0,1-.88769.22558A2.37,2.37,0,0,1,20.31543,39.22754Z"/><path class="cls-2" d="M25.44629,36.47949v2.8086h-.48242v-.42383a1.01981,1.01981,0,0,1-.40528.33594,1.25784,1.25784,0,0,1-.54882.12011,1.22333,1.22333,0,0,1-.88477-.31054,1.20891,1.20891,0,0,1-.32324-.91407V36.47949h.50879v1.55762a.869.869,0,0,0,.19629.61719.72994.72994,0,0,0,.56152.21.83578.83578,0,0,0,.63574-.24414.95573.95573,0,0,0,.2334-.68848V36.47949Z"/><path class="cls-2" d="M26.416,35.35547h.50878v3.93262H26.416Z"/><path class="cls-2" d="M29.542,39.124a.75546.75546,0,0,1-.27539.14551,1.16257,1.16257,0,0,1-.33887.05078.8983.8983,0,0,1-.65722-.22851.8659.8659,0,0,1-.2334-.65137v-1.543h-.47754v-.418h.47754v-.61523h.50879v.61523h.80566v.418H28.5459V38.419a.491.491,0,0,0,.11426.3496.42339.42339,0,0,0,.32519.12207.61038.61038,0,0,0,.39746-.13281Z"/><path class="cls-2" d="M30.165,35.84277a.31052.31052,0,0,1-.09766-.23242A.32067.32067,0,0,1,30.165,35.374a.33339.33339,0,0,1,.24609-.09765.34217.34217,0,0,1,.24707.09277.30333.30333,0,0,1,.09766.23047.32849.32849,0,0,1-.09766.24121.3341.3341,0,0,1-.24707.09766A.33962.33962,0,0,1,30.165,35.84277Zm-.00781.63672H30.666v2.8086h-.50879Z"/><path class="cls-2" d="M33.98633,36.7627a1.22146,1.22146,0,0,1,.31543.90918v1.61621H33.793v-1.5586a.86114.86114,0,0,0-.19629-.61426.73859.73859,0,0,0-.56152-.207.878.878,0,0,0-.65235.24121.94223.94223,0,0,0-.23828.69141v1.44727h-.50879v-2.8086h.48731v.42383a.98077.98077,0,0,1,.416-.334,1.449,1.449,0,0,1,.59668-.11719A1.15959,1.15959,0,0,1,33.98633,36.7627Z"/><path class="cls-2" d="M37.94727,36.47949v2.42676a1.45157,1.45157,0,0,1-.36524,1.08984,1.51913,1.51913,0,0,1-1.0918.35157,2.6186,2.6186,0,0,1-.75781-.1084,1.50463,1.50463,0,0,1-.583-.30957l.24414-.39258a1.4267,1.4267,0,0,0,.48438.26758,1.8424,1.8424,0,0,0,.59668.09863,1.00121,1.00121,0,0,0,.72851-.2334.95935.95935,0,0,0,.23536-.71V38.7373a1.12586,1.12586,0,0,1-.44239.3252,1.457,1.457,0,0,1-.56933.10938,1.52856,1.52856,0,0,1-.72852-.17286,1.27542,1.27542,0,0,1-.51172-.48242,1.44176,1.44176,0,0,1,0-1.415,1.26849,1.26849,0,0,1,.51172-.47949,1.55,1.55,0,0,1,.72852-.16992,1.4804,1.4804,0,0,1,.59082.11719,1.09618,1.09618,0,0,1,.44824.34472v-.43457Zm-.9668,2.12989a.85769.85769,0,0,0,.34473-.3252.91073.91073,0,0,0,.124-.47461.86124.86124,0,0,0-.26953-.66016,1.09079,1.09079,0,0,0-1.39453,0,.862.862,0,0,0-.27051.66016.91128.91128,0,0,0,.125.47461.85763.85763,0,0,0,.34473.3252,1.048,1.048,0,0,0,.501.11718A1.03555,1.03555,0,0,0,36.98047,38.60938Z"/><path class="cls-2" d="M40.35156,38.1748a.468.468,0,0,1-.14062-.3496.47991.47991,0,0,1,.81933-.3418.4834.4834,0,0,1-.33691.8291A.47088.47088,0,0,1,40.35156,38.1748Z"/><path class="cls-2" d="M44.16211,39.084a1.81166,1.81166,0,0,1-.70215-.67871,1.98806,1.98806,0,0,1,0-1.94433,1.8063,1.8063,0,0,1,.70508-.67871,2.06321,2.06321,0,0,1,1.00684-.2461,2.09064,2.09064,0,0,1,.79492.14551,1.62937,1.62937,0,0,1,.61523.43164l-.34473.334a1.38271,1.38271,0,0,0-1.04394-.43946,1.50968,1.50968,0,0,0-.748.18555,1.34443,1.34443,0,0,0-.52148.51074,1.50407,1.50407,0,0,0,0,1.458,1.34443,1.34443,0,0,0,.52148.51074,1.50957,1.50957,0,0,0,.748.18555,1.38846,1.38846,0,0,0,1.04394-.44434l.34473.333a1.64232,1.64232,0,0,1-.61816.43457,2.075,2.075,0,0,1-.79688.14844A2.053,2.053,0,0,1,44.16211,39.084Z"/><path class="cls-2" d="M47.59863,39.13477a1.34713,1.34713,0,0,1-.52148-.51172,1.544,1.544,0,0,1,0-1.47852,1.32,1.32,0,0,1,.52148-.50879,1.54038,1.54038,0,0,1,.75293-.18359,1.52364,1.52364,0,0,1,.75.18359,1.33416,1.33416,0,0,1,.51953.50879,1.5511,1.5511,0,0,1,0,1.47852,1.36194,1.36194,0,0,1-.51953.51172,1.51433,1.51433,0,0,1-.75.18554A1.531,1.531,0,0,1,47.59863,39.13477ZM48.83594,38.75a.87351.87351,0,0,0,.33691-.34961,1.15416,1.15416,0,0,0,0-1.0332.85626.85626,0,0,0-.33691-.34766,1.024,1.024,0,0,0-.96973,0,.87984.87984,0,0,0-.33887.34766,1.13,1.13,0,0,0,0,1.0332.898.898,0,0,0,.33887.34961,1.00288,1.00288,0,0,0,.96973,0Z"/><path class="cls-2" d="M52.4043,36.73926a1.10508,1.10508,0,0,1,.30957.85254v1.69629h-.48242V38.917a.80057.80057,0,0,1-.36231.29981,1.39588,1.39588,0,0,1-.55957.10351,1.16592,1.16592,0,0,1-.75488-.22851.72959.72959,0,0,1-.28418-.59864.7408.7408,0,0,1,.27051-.59668,1.33818,1.33818,0,0,1,.85839-.2246h.80567v-.10059a.64883.64883,0,0,0-.19043-.50391.80593.80593,0,0,0-.56153-.1748,1.49427,1.49427,0,0,0-.48828.082,1.26006,1.26006,0,0,0-.40234.21973l-.21191-.38184a1.54773,1.54773,0,0,1,.51953-.26758,2.18069,2.18069,0,0,1,.64062-.09277A1.26977,1.26977,0,0,1,52.4043,36.73926Zm-.50586,2.05859a.74489.74489,0,0,0,.30664-.36816v-.39258H51.4209c-.43067,0-.64649.14551-.64649.43457a.393.393,0,0,0,.16407.334.7531.7531,0,0,0,.45605.12207A.944.944,0,0,0,51.89844,38.79785Z"/><path class="cls-2" d="M54.13086,39.13477a1.376,1.376,0,0,1-.52734-.51172,1.53014,1.53014,0,0,1,0-1.47852,1.34806,1.34806,0,0,1,.52734-.50879,1.57776,1.57776,0,0,1,.7666-.18359,1.468,1.468,0,0,1,.68066.1543,1.097,1.097,0,0,1,.46387.44531l-.38672.249a.86836.86836,0,0,0-.3291-.30273.94592.94592,0,0,0-.43457-.10059,1.00565,1.00565,0,0,0-.49512.12207.8686.8686,0,0,0-.34472.34766,1.04793,1.04793,0,0,0-.125.5166,1.05907,1.05907,0,0,0,.125.52148.86854.86854,0,0,0,.34472.34766,1.00565,1.00565,0,0,0,.49512.12207.94592.94592,0,0,0,.43457-.10059.86828.86828,0,0,0,.3291-.30273l.38672.24414a1.10743,1.10743,0,0,1-.46387.44727,1.44543,1.44543,0,0,1-.68066.15722A1.568,1.568,0,0,1,54.13086,39.13477Z"/><path class="cls-2" d="M59.0127,36.7627a1.22146,1.22146,0,0,1,.31542.90918v1.61621h-.50878v-1.5586a.86114.86114,0,0,0-.19629-.61426.7386.7386,0,0,0-.56153-.207.878.878,0,0,0-.65234.24121.94223.94223,0,0,0-.23828.69141v1.44727h-.50879V35.35547h.50879V36.877a1.04015,1.04015,0,0,1,.416-.31347,1.43206,1.43206,0,0,1,.5752-.11133A1.15962,1.15962,0,0,1,59.0127,36.7627Z"/><path class="cls-2" d="M60.2793,35.84277a.31052.31052,0,0,1-.09766-.23242.32067.32067,0,0,1,.09766-.23633.33339.33339,0,0,1,.24609-.09765.34217.34217,0,0,1,.24707.09277.30333.30333,0,0,1,.09766.23047.32849.32849,0,0,1-.09766.24121.3341.3341,0,0,1-.24707.09766A.33962.33962,0,0,1,60.2793,35.84277Zm-.00782.63672h.50879v2.8086h-.50879Z"/><path class="cls-2" d="M64.10059,36.7627a1.22146,1.22146,0,0,1,.31543.90918v1.61621h-.50879v-1.5586a.86114.86114,0,0,0-.19629-.61426.7386.7386,0,0,0-.56153-.207.878.878,0,0,0-.65234.24121.94223.94223,0,0,0-.23828.69141v1.44727H61.75v-2.8086h.4873v.42383a.9808.9808,0,0,1,.416-.334,1.449,1.449,0,0,1,.59668-.11719A1.15961,1.15961,0,0,1,64.10059,36.7627Z"/><path class="cls-2" d="M68.06152,36.47949v2.42676a1.45157,1.45157,0,0,1-.36523,1.08984,1.51913,1.51913,0,0,1-1.0918.35157,2.6185,2.6185,0,0,1-.75781-.1084,1.50463,1.50463,0,0,1-.583-.30957l.24414-.39258a1.4266,1.4266,0,0,0,.48438.26758,1.8424,1.8424,0,0,0,.59668.09863,1.00121,1.00121,0,0,0,.72851-.2334.95935.95935,0,0,0,.23535-.71V38.7373a1.12575,1.12575,0,0,1-.44238.3252,1.457,1.457,0,0,1-.56933.10938,1.52856,1.52856,0,0,1-.72852-.17286,1.27536,1.27536,0,0,1-.51172-.48242,1.4417,1.4417,0,0,1,0-1.415,1.26843,1.26843,0,0,1,.51172-.47949,1.55,1.55,0,0,1,.72852-.16992,1.4804,1.4804,0,0,1,.59082.11719,1.09618,1.09618,0,0,1,.44824.34472v-.43457Zm-.96679,2.12989a.8576.8576,0,0,0,.34472-.3252.91065.91065,0,0,0,.124-.47461.86127.86127,0,0,0-.26953-.66016,1.09081,1.09081,0,0,0-1.39454,0,.862.862,0,0,0-.2705.66016.91128.91128,0,0,0,.125.47461.8576.8576,0,0,0,.34472.3252,1.04811,1.04811,0,0,0,.501.11718A1.03558,1.03558,0,0,0,67.09473,38.60938Z"/><path class="cls-2" d="M70.46582,38.1748a.468.468,0,0,1-.14062-.3496.47991.47991,0,0,1,.81933-.3418.4834.4834,0,0,1-.33691.8291A.47088.47088,0,0,1,70.46582,38.1748Z"/><path class="cls-2" d="M73.62207,35.57812h.53027v3.249h2.00782v.46094H73.62207Z"/><path class="cls-2" d="M79.5,39.34668l-.49316-.49316a1.71089,1.71089,0,0,1-1.24024.47656,1.75064,1.75064,0,0,1-.668-.1211,1.08739,1.08739,0,0,1-.46386-.34179.81009.81009,0,0,1-.167-.501.93672.93672,0,0,1,.21-.60156,2.4123,2.4123,0,0,1,.69141-.53809,1.86537,1.86537,0,0,1-.34473-.44043.87624.87624,0,0,1-.10058-.4082.7475.7475,0,0,1,.27246-.60352,1.10031,1.10031,0,0,1,.72949-.22851,1.02222,1.02222,0,0,1,.67285.207.69789.69789,0,0,1,.249.56738.76911.76911,0,0,1-.18262.50293,2.21684,2.21684,0,0,1-.60742.4668l.917.91113a2.34669,2.34669,0,0,0,.22851-.67285l.40821.13281a2.459,2.459,0,0,1-.32422.84766l.499.498Zm-.79492-.79-1.05567-1.0498a1.90416,1.90416,0,0,0-.53222.3955.62914.62914,0,0,0-.15137.41016.5058.5058,0,0,0,.23047.42969,1.01676,1.01676,0,0,0,.60156.16406A1.23846,1.23846,0,0,0,78.70508,38.55664ZM77.53613,36.042a.41439.41439,0,0,0-.14062.32617.53957.53957,0,0,0,.07715.27539,2.08449,2.08449,0,0,0,.29882.36036,2.25512,2.25512,0,0,0,.50684-.35547.46334.46334,0,0,0,.13965-.32324.37129.37129,0,0,0-.12988-.29688.53777.53777,0,0,0-.36231-.11133A.56771.56771,0,0,0,77.53613,36.042Z"/><path class="cls-2" d="M80.42188,35.57812h1.56347a2.2636,2.2636,0,0,1,1.044.2334,1.71216,1.71216,0,0,1,.708.6543,1.98946,1.98946,0,0,1,0,1.93457,1.71216,1.71216,0,0,1-.708.6543,2.2636,2.2636,0,0,1-1.044.2334H80.42188Zm1.53124,3.249a1.72443,1.72443,0,0,0,.793-.17481,1.2741,1.2741,0,0,0,.52735-.49023,1.52494,1.52494,0,0,0,0-1.458,1.2741,1.2741,0,0,0-.52735-.49023,1.72443,1.72443,0,0,0-.793-.17481h-1.001v2.78809Z"/><path class="cls-2" d="M19.2365,20.41488l-3.12478-4.30119L9,17.13139l5.1687,4.93009Z"/><path class="cls-2" d="M21.36836,20.41479l5.06775,1.64669,5.05445-4.93009-6.99729-1.0177Z"/><path class="cls-2" d="M20.30238,19.64023l3.12724-4.30435L20.30238,9l-3.1272,6.33579Z"/><path class="cls-2" d="M20.96129,21.66772V26.9978l6.2583,3.29039-1.1971-6.9759Z"/><path class="cls-2" d="M19.64348,21.66776l-5.06121,1.64453-1.197,6.9759,6.25826-3.29039Z"/></g></g></svg>