<svg xmlns="http://www.w3.org/2000/svg" viewBox="0 0 107.07599 44.76289"><defs><style>.cls-1{fill:#540b2a;}.cls-2{fill:#2d2520;}</style></defs><g id="Layer_2" data-name="Layer 2"><g id="Layer_1-2" data-name="Layer 1"><path class="cls-1" d="M52.63818,21.53828H43.64209l-1.77344,4.16406H38.4248L46.521,7.71113h3.28955l8.12207,17.99121H54.437Zm-1.10547-2.6211L48.14014,11.052,44.773,18.91718Z" transform="translate(-0.00018)"/><path class="cls-1" d="M60.76025,25.4455A8.18167,8.18167,0,0,1,58.21533,24.34l1.23389-2.44141a7.9213,7.9213,0,0,0,2.22314.98926,9.21625,9.21625,0,0,0,2.55762.373q2.87769,0,2.87842-1.5166A1.01457,1.01457,0,0,0,66.376,20.7414a12.70732,12.70732,0,0,0-2.35157-.53906,18.89154,18.89154,0,0,1-2.76318-.5918,4.22963,4.22963,0,0,1-1.85059-1.16894,3.26393,3.26393,0,0,1-.78369-2.32617,3.65734,3.65734,0,0,1,1.63184-3.123,7.43088,7.43088,0,0,1,4.4082-1.169,12.7459,12.7459,0,0,1,2.82715.32129,7.93927,7.93927,0,0,1,2.313.86036l-1.23389,2.44238a7.60788,7.60788,0,0,0-3.93213-1.02832,4.36376,4.36376,0,0,0-2.146.42383,1.26528,1.26528,0,0,0-.73291,1.11816,1.11793,1.11793,0,0,0,.78418,1.09277,12.48125,12.48125,0,0,0,2.42871.60352,18.9667,18.9667,0,0,1,2.69873.59082,4.23229,4.23229,0,0,1,1.812,1.13184,3.15145,3.15145,0,0,1,.7583,2.26171,3.5792,3.5792,0,0,1-1.6709,3.084A7.8815,7.8815,0,0,1,64.02441,25.882,12.29428,12.29428,0,0,1,60.76025,25.4455Z" transform="translate(-0.00018)"/><path class="cls-1" d="M81.27051,24.95722a3.78948,3.78948,0,0,1-1.376.69336,6.185,6.185,0,0,1-1.709.23145,4.84928,4.84928,0,0,1-3.49512-1.18164A4.54993,4.54993,0,0,1,73.45654,21.256V14.65058H71.19482V12.08027h2.26172V8.94453H76.669v3.13574h3.67578v2.57031H76.669V21.1789a2.17,2.17,0,0,0,.48925,1.5293,1.829,1.829,0,0,0,1.41309.52637,2.81542,2.81542,0,0,0,1.79883-.56543Z" transform="translate(-0.00018)"/><path class="cls-1" d="M91.85938,11.82343V14.882a4.05826,4.05826,0,0,0-.7461-.07715,3.88115,3.88115,0,0,0-2.92969,1.0918,4.355,4.355,0,0,0-1.05371,3.14843v6.65723H83.917V11.97773h3.0586v2.00488Q88.36426,11.82344,91.85938,11.82343Z" transform="translate(-0.00018)"/><path class="cls-1" d="M104.38965,13.27558a5.61444,5.61444,0,0,1,1.60644,4.38184v8.04492h-3.0332v-1.6709a3.72953,3.72953,0,0,1-1.68359,1.375,6.57388,6.57388,0,0,1-2.63379.47559,6.46806,6.46806,0,0,1-2.69922-.52637,4.17223,4.17223,0,0,1-1.78613-1.46484,3.72063,3.72063,0,0,1-.62989-2.1211,3.63505,3.63505,0,0,1,1.375-2.96875,6.83141,6.83141,0,0,1,4.33106-1.11816h3.54687v-.20508a2.814,2.814,0,0,0-.86132-2.21094,3.72812,3.72812,0,0,0-2.55762-.7705,7.4001,7.4001,0,0,0-2.27442.35937,5.58548,5.58548,0,0,0-1.88867,1.00293l-1.25976-2.33887A7.80407,7.80407,0,0,1,96.53711,12.26,11.56034,11.56034,0,0,1,99.75,11.82343,6.69615,6.69615,0,0,1,104.38965,13.27558ZM101.459,22.99043a3.00163,3.00163,0,0,0,1.32422-1.58008V19.8166H99.46777q-2.77587,0-2.77636,1.82519a1.6381,1.6381,0,0,0,.69433,1.3877,3.18209,3.18209,0,0,0,1.92774.51367A4.13966,4.13966,0,0,0,101.459,22.99043Z" transform="translate(-0.00018)"/><path class="cls-2" d="M1.72949,42.9582a2.59269,2.59269,0,0,1-1.00293-.96875,2.8358,2.8358,0,0,1,0-2.77734,2.58168,2.58168,0,0,1,1.00635-.96875,2.93814,2.93814,0,0,1,1.438-.35254,3.00393,3.00393,0,0,1,1.13525.208,2.33673,2.33673,0,0,1,.87793.61718l-.49219.47657a1.976,1.976,0,0,0-1.49072-.62793,2.16742,2.16742,0,0,0-1.06689.26464,1.92167,1.92167,0,0,0-.74561.73047,2.15011,2.15011,0,0,0,0,2.08106,1.92167,1.92167,0,0,0,.74561.73047,2.157,2.157,0,0,0,1.06689.26464,1.97681,1.97681,0,0,0,1.49072-.63574l.49219.47754a2.35663,2.35663,0,0,1-.88183.62012,2.97552,2.97552,0,0,1-1.13868.21191A2.92644,2.92644,0,0,1,1.72949,42.9582Z" transform="translate(-0.00018)"/><path class="cls-2" d="M6.63721,43.02949A1.9216,1.9216,0,0,1,5.8916,42.299a2.20917,2.20917,0,0,1,0-2.11133,1.90521,1.90521,0,0,1,.74561-.72656,2.33715,2.33715,0,0,1,2.1455,0,1.91455,1.91455,0,0,1,.7417.72656,2.2091,2.2091,0,0,1,0,2.11133,1.9312,1.9312,0,0,1-.7417.73047,2.3065,2.3065,0,0,1-2.1455,0Zm1.76709-.54883a1.25136,1.25136,0,0,0,.48047-.499,1.65273,1.65273,0,0,0,0-1.47559A1.23135,1.23135,0,0,0,8.4043,40.01a1.46584,1.46584,0,0,0-1.38477,0,1.25,1.25,0,0,0-.48437.49609,1.61619,1.61619,0,0,0,0,1.47559,1.2704,1.2704,0,0,0,.48437.499,1.43063,1.43063,0,0,0,1.38477,0Z" transform="translate(-0.00018)"/><path class="cls-2" d="M14.15576,39.64277a1.74317,1.74317,0,0,1,.4502,1.29785v2.3086h-.72657V41.02461a1.231,1.231,0,0,0-.27978-.87793,1.05148,1.05148,0,0,0-.80225-.2959,1.25,1.25,0,0,0-.93066.34472,1.34484,1.34484,0,0,0-.34082.98731v2.06641h-.72656V39.23847h.69629v.60547a1.40837,1.40837,0,0,1,.59423-.47656,2.0706,2.0706,0,0,1,.85157-.167A1.65789,1.65789,0,0,1,14.15576,39.64277Z" transform="translate(-0.00018)"/><path class="cls-2" d="M16.15723,43.1623a2.05955,2.05955,0,0,1-.71143-.33691l.30274-.5752a2.1633,2.1633,0,0,0,.64306.30274,2.63271,2.63271,0,0,0,.76465.11328q.95361,0,.95361-.54492a.35123.35123,0,0,0-.1289-.28711.82475.82475,0,0,0-.32178-.15528q-.19263-.0498-.54834-.10937a5.303,5.303,0,0,1-.791-.17481,1.20912,1.20912,0,0,1-.52587-.333.92419.92419,0,0,1-.21973-.65821,1.02852,1.02852,0,0,1,.4541-.874,2.03254,2.03254,0,0,1,1.21875-.3291,3.36852,3.36852,0,0,1,.80225.09863,2.14535,2.14535,0,0,1,.6582.26465l-.31006.57519a2.08817,2.08817,0,0,0-1.1582-.31836,1.34042,1.34042,0,0,0-.70362.15137.4581.4581,0,0,0-.24218.40137.3827.3827,0,0,0,.13623.31055.86522.86522,0,0,0,.33691.166q.19995.05419.56348.1211a6.05926,6.05926,0,0,1,.7832.17871,1.16738,1.16738,0,0,1,.51123.32129.89676.89676,0,0,1,.21192.63574,1.001,1.001,0,0,1-.46582.86621,2.19456,2.19456,0,0,1-1.26758.32129A3.37341,3.37341,0,0,1,16.15723,43.1623Z" transform="translate(-0.00018)"/><path class="cls-2" d="M23.48291,39.23847v4.01075h-.689v-.60547a1.45621,1.45621,0,0,1-.57862.48047,1.81035,1.81035,0,0,1-.7832.16992,1.75085,1.75085,0,0,1-1.26416-.44239,1.72727,1.72727,0,0,1-.46143-1.30566V39.23847h.72657v2.22461a1.24631,1.24631,0,0,0,.27978.88184,1.04577,1.04577,0,0,0,.80225.29883,1.2,1.2,0,0,0,.9082-.34766,1.36763,1.36763,0,0,0,.333-.98437V39.23847Z" transform="translate(-0.00018)"/><path class="cls-2" d="M24.86768,37.634h.72656v5.61524h-.72656Z" transform="translate(-0.00018)"/><path class="cls-2" d="M29.33252,43.01484a1.084,1.084,0,0,1-.39356.208,1.6453,1.6453,0,0,1-.48437.07129,1.287,1.287,0,0,1-.93848-.3252,1.24371,1.24371,0,0,1-.333-.93066V39.83613H26.502v-.59766h.68116v-.87793h.72656v.87793h1.15039v.59766H27.90967V42.008a.70476.70476,0,0,0,.16308.5.608.608,0,0,0,.46534.17383.87629.87629,0,0,0,.56738-.18945Z" transform="translate(-0.00018)"/><path class="cls-2" d="M30.22168,38.33027a.44594.44594,0,0,1-.14014-.333.45914.45914,0,0,1,.14014-.33691.47466.47466,0,0,1,.35156-.13965.49282.49282,0,0,1,.35205.13184.43623.43623,0,0,1,.14014.3291.46917.46917,0,0,1-.14014.34472.475.475,0,0,1-.35205.13965A.48318.48318,0,0,1,30.22168,38.33027Zm-.01172.9082h.72656v4.01075H30.21Z" transform="translate(-0.00018)"/><path class="cls-2" d="M35.67822,39.64277a1.74313,1.74313,0,0,1,.4502,1.29785v2.3086h-.72656V41.02461a1.231,1.231,0,0,0-.27979-.87793,1.05148,1.05148,0,0,0-.80225-.2959,1.25,1.25,0,0,0-.93066.34472,1.34484,1.34484,0,0,0-.34082.98731v2.06641h-.72656V39.23847h.69629v.60547a1.40837,1.40837,0,0,1,.59423-.47656,2.0706,2.0706,0,0,1,.85157-.167A1.65789,1.65789,0,0,1,35.67822,39.64277Z" transform="translate(-0.00018)"/><path class="cls-2" d="M41.335,39.23847v3.46582A2.07354,2.07354,0,0,1,40.813,44.26a2.168,2.168,0,0,1-1.55908.50293,3.72337,3.72337,0,0,1-1.082-.15528,2.14616,2.14616,0,0,1-.83252-.44238l.34814-.56055a2.04954,2.04954,0,0,0,.69238.38282,2.64525,2.64525,0,0,0,.85157.13965,1.42956,1.42956,0,0,0,1.04052-.333,1.36988,1.36988,0,0,0,.33643-1.01367v-.31836a1.60484,1.60484,0,0,1-.63184.46582,2.10311,2.10311,0,0,1-.81347.15527,2.19232,2.19232,0,0,1-1.04053-.24609,1.83,1.83,0,0,1-.73047-.68946,2.06054,2.06054,0,0,1,0-2.0205,1.805,1.805,0,0,1,.73047-.68457,2.22489,2.22489,0,0,1,1.04053-.24219,2.11917,2.11917,0,0,1,.84375.167,1.56153,1.56153,0,0,1,.63964.49121v-.62012Zm-1.38086,3.042a1.23124,1.23124,0,0,0,.4917-.46582,1.29689,1.29689,0,0,0,.17774-.67676,1.22838,1.22838,0,0,0-.38575-.94239,1.55743,1.55743,0,0,0-1.99023,0,1.22874,1.22874,0,0,0-.38623.94239,1.2972,1.2972,0,0,0,.17822.67676,1.225,1.225,0,0,0,.4917.46582,1.50027,1.50027,0,0,0,.71533.167A1.484,1.484,0,0,0,39.9541,42.28047Z" transform="translate(-0.00018)"/><path class="cls-2" d="M44.76709,41.66035a.67146.67146,0,0,1-.20068-.5.6589.6589,0,0,1,.2041-.48828.66772.66772,0,0,1,.48437-.2002.65614.65614,0,0,1,.481.2002.692.692,0,0,1-.96875.98828Z" transform="translate(-0.00018)"/><path class="cls-2" d="M50.2085,42.9582a2.59262,2.59262,0,0,1-1.00293-.96875,2.8358,2.8358,0,0,1,0-2.77734,2.58159,2.58159,0,0,1,1.00634-.96875,2.93817,2.93817,0,0,1,1.438-.35254,3.004,3.004,0,0,1,1.13526.208,2.33681,2.33681,0,0,1,.87793.61718l-.49219.47657a1.976,1.976,0,0,0-1.49072-.62793,2.16743,2.16743,0,0,0-1.0669.26464,1.92164,1.92164,0,0,0-.7456.73047,2.15,2.15,0,0,0,0,2.08106,1.92164,1.92164,0,0,0,.7456.73047,2.157,2.157,0,0,0,1.0669.26464,1.97681,1.97681,0,0,0,1.49072-.63574l.49219.47754a2.35667,2.35667,0,0,1-.88184.62012,2.97547,2.97547,0,0,1-1.13867.21191A2.92642,2.92642,0,0,1,50.2085,42.9582Z" transform="translate(-0.00018)"/><path class="cls-2" d="M55.11572,43.02949a1.92157,1.92157,0,0,1-.7456-.73047,2.2091,2.2091,0,0,1,0-2.11133,1.90518,1.90518,0,0,1,.7456-.72656,2.33717,2.33717,0,0,1,2.14551,0,1.91462,1.91462,0,0,1,.7417.72656,2.20917,2.20917,0,0,1,0,2.11133,1.93127,1.93127,0,0,1-.7417.73047,2.30652,2.30652,0,0,1-2.14551,0Zm1.76709-.54883a1.25129,1.25129,0,0,0,.48047-.499,1.65264,1.65264,0,0,0,0-1.47559,1.23129,1.23129,0,0,0-.48047-.49609,1.46582,1.46582,0,0,0-1.38476,0,1.25005,1.25005,0,0,0-.48438.49609,1.61627,1.61627,0,0,0,0,1.47559,1.27049,1.27049,0,0,0,.48438.499,1.43061,1.43061,0,0,0,1.38476,0Z" transform="translate(-0.00018)"/><path class="cls-2" d="M61.97607,39.60957a1.57378,1.57378,0,0,1,.44288,1.21777v2.42188h-.68848v-.5293a1.14313,1.14313,0,0,1-.51856.42676,1.97477,1.97477,0,0,1-.79834.14746,1.67206,1.67206,0,0,1-1.07861-.3252,1.11826,1.11826,0,0,1-.019-1.70605,1.89943,1.89943,0,0,1,1.22607-.32227h1.15039v-.14355a.92558.92558,0,0,0-.27246-.71875,1.14724,1.14724,0,0,0-.80224-.25,2.1253,2.1253,0,0,0-.69629.11718,1.82184,1.82184,0,0,0-.5752.31446l-.30273-.54492a2.19907,2.19907,0,0,1,.7417-.38184,3.08493,3.08493,0,0,1,.916-.13281A1.81349,1.81349,0,0,1,61.97607,39.60957ZM61.25342,42.549a1.0601,1.0601,0,0,0,.439-.52539v-.56055H60.57227q-.9236,0-.92334.6211a.5615.5615,0,0,0,.23486.47656,1.07064,1.07064,0,0,0,.65088.17383A1.34516,1.34516,0,0,0,61.25342,42.549Z" transform="translate(-0.00018)"/><path class="cls-2" d="M64.44287,43.02949a1.94085,1.94085,0,0,1-.75293-.73047,2.18135,2.18135,0,0,1,0-2.11133,1.92438,1.92438,0,0,1,.75293-.72656,2.25642,2.25642,0,0,1,1.09375-.26074,2.09613,2.09613,0,0,1,.97217.21972,1.56352,1.56352,0,0,1,.66211.63575l-.55225.35547a1.23624,1.23624,0,0,0-.46924-.43165,1.33979,1.33979,0,0,0-.6206-.14355,1.43326,1.43326,0,0,0-.70752.17383,1.23619,1.23619,0,0,0-.4917.49609,1.49543,1.49543,0,0,0-.17822.73731,1.5165,1.5165,0,0,0,.17822.74609,1.23375,1.23375,0,0,0,.4917.49512,1.43383,1.43383,0,0,0,.70752.1748,1.32837,1.32837,0,0,0,.6206-.14453,1.23345,1.23345,0,0,0,.46924-.43066l.55225.34765a1.58406,1.58406,0,0,1-.66211.63965,2.07332,2.07332,0,0,1-.97217.22266A2.226,2.226,0,0,1,64.44287,43.02949Z" transform="translate(-0.00018)"/><path class="cls-2" d="M71.41309,39.64277a1.74317,1.74317,0,0,1,.45019,1.29785v2.3086h-.72656V41.02461a1.231,1.231,0,0,0-.27979-.87793,1.05147,1.05147,0,0,0-.80224-.2959,1.25,1.25,0,0,0-.93067.34472,1.34484,1.34484,0,0,0-.34082.98731v2.06641h-.72656V37.634h.72656v2.17188a1.49868,1.49868,0,0,1,.59424-.44629,2.03825,2.03825,0,0,1,.82129-.15918A1.65791,1.65791,0,0,1,71.41309,39.64277Z" transform="translate(-0.00018)"/><path class="cls-2" d="M73.22217,38.33027a.44594.44594,0,0,1-.14014-.333.45914.45914,0,0,1,.14014-.33691.47466.47466,0,0,1,.35156-.13965.49282.49282,0,0,1,.35205.13184.43623.43623,0,0,1,.14014.3291.46917.46917,0,0,1-.14014.34472.475.475,0,0,1-.35205.13965A.48318.48318,0,0,1,73.22217,38.33027Zm-.01172.9082H73.937v4.01075h-.72656Z" transform="translate(-0.00018)"/><path class="cls-2" d="M78.67773,39.64277a1.74153,1.74153,0,0,1,.45118,1.29785v2.3086h-.72657V41.02461a1.23537,1.23537,0,0,0-.27929-.87793,1.05482,1.05482,0,0,0-.80274-.2959,1.25005,1.25005,0,0,0-.93164.34472,1.34649,1.34649,0,0,0-.33984.98731v2.06641h-.72656V39.23847h.69531v.60547a1.4159,1.4159,0,0,1,.59375-.47656,2.077,2.077,0,0,1,.85156-.167A1.656,1.656,0,0,1,78.67773,39.64277Z" transform="translate(-0.00018)"/><path class="cls-2" d="M84.335,39.23847v3.46582A2.07171,2.07171,0,0,1,83.8125,44.26a2.16591,2.16591,0,0,1-1.55859.50293,3.72579,3.72579,0,0,1-1.082-.15528,2.15193,2.15193,0,0,1-.833-.44238l.34863-.56055a2.04483,2.04483,0,0,0,.69238.38282,2.6474,2.6474,0,0,0,.85157.13965,1.429,1.429,0,0,0,1.04-.333,1.368,1.368,0,0,0,.33692-1.01367v-.31836a1.60136,1.60136,0,0,1-.63184.46582,2.10315,2.10315,0,0,1-.81347.15527,2.18618,2.18618,0,0,1-1.04-.24609,1.8206,1.8206,0,0,1-.73047-.68946,2.05392,2.05392,0,0,1,0-2.0205,1.79581,1.79581,0,0,1,.73047-.68457,2.21864,2.21864,0,0,1,1.04-.24219,2.11917,2.11917,0,0,1,.84375.167,1.56473,1.56473,0,0,1,.63964.49121v-.62012Zm-1.38086,3.042a1.23569,1.23569,0,0,0,.49219-.46582,1.30151,1.30151,0,0,0,.17773-.67676,1.23009,1.23009,0,0,0-.38574-.94239,1.55879,1.55879,0,0,0-1.99121,0,1.23009,1.23009,0,0,0-.38574.94239,1.30151,1.30151,0,0,0,.17773.67676,1.23575,1.23575,0,0,0,.49219.46582,1.5989,1.5989,0,0,0,1.42285,0Z" transform="translate(-0.00018)"/><path class="cls-2" d="M87.76758,41.66035a.67185.67185,0,0,1-.20117-.5.658.658,0,0,1,.20507-.48828.66537.66537,0,0,1,.48438-.2002.65507.65507,0,0,1,.48047.2002.692.692,0,0,1-.96875.98828Z" transform="translate(-0.00018)"/><path class="cls-2" d="M92.27344,37.95136h.75683V42.591h2.86817v.65821h-3.625Z" transform="translate(-0.00018)"/><path class="cls-2" d="M100.666,43.33222l-.70313-.70312a2.44485,2.44485,0,0,1-1.77148.68066,2.48512,2.48512,0,0,1-.95313-.17383,1.55272,1.55272,0,0,1-.66211-.48828,1.15,1.15,0,0,1-.23828-.71484,1.34,1.34,0,0,1,.29883-.85938,3.46163,3.46163,0,0,1,.9873-.76855,2.66346,2.66346,0,0,1-.49218-.62793,1.26014,1.26014,0,0,1-.14356-.582,1.06859,1.06859,0,0,1,.38965-.86328,1.572,1.572,0,0,1,1.041-.3252,1.46164,1.46164,0,0,1,.96093.29492.99574.99574,0,0,1,.35547.80957,1.10063,1.10063,0,0,1-.26074.71875,3.1666,3.1666,0,0,1-.86621.666L99.917,41.69746a3.35757,3.35757,0,0,0,.3252-.96094l.583.18945a3.48617,3.48617,0,0,1-.46192,1.21094l.71192.71094Zm-1.13477-1.127-1.50586-1.499a2.70245,2.70245,0,0,0-.76074.56445.89692.89692,0,0,0-.21582.58594.72283.72283,0,0,0,.3291.61328,1.44981,1.44981,0,0,0,.85937.23437A1.76635,1.76635,0,0,0,99.53125,42.20527Zm-1.66895-3.5918a.594.594,0,0,0-.20019.46582.77086.77086,0,0,0,.10937.39356,2.98467,2.98467,0,0,0,.42774.51465,3.28283,3.28283,0,0,0,.72266-.50684.66088.66088,0,0,0,.20117-.46191.53248.53248,0,0,0-.18555-.42383.77645.77645,0,0,0-.51855-.15918A.81236.81236,0,0,0,97.8623,38.61347Z" transform="translate(-0.00018)"/><path class="cls-2" d="M101.9834,37.95136h2.23242a3.22929,3.22929,0,0,1,1.49023.333,2.45,2.45,0,0,1,1.01075.93457,2.83451,2.83451,0,0,1,0,2.7627,2.43728,2.43728,0,0,1-1.01075.93457,3.22929,3.22929,0,0,1-1.49023.333H101.9834Zm2.18652,4.63965a2.44641,2.44641,0,0,0,1.13184-.25,1.80117,1.80117,0,0,0,.75293-.70019,2.17786,2.17786,0,0,0,0-2.08106,1.81362,1.81362,0,0,0-.75293-.70019,2.45838,2.45838,0,0,0-1.13184-.249h-1.42969V42.591Z" transform="translate(-0.00018)"/><path class="cls-1" d="M14.61684,16.29926,10.155,10.15762.00018,11.61078l7.38037,7.03966Z" transform="translate(-0.00018)"/><path class="cls-1" d="M17.66091,16.29914l7.23623,2.3513,7.21723-7.03966L22.123,10.15762Z" transform="translate(-0.00018)"/><path class="cls-1" d="M16.13881,15.19314,20.60419,9.047,16.13881,0,11.6735,9.04685Z" transform="translate(-0.00018)"/><path class="cls-1" d="M17.07966,18.08819V25.699l8.93621,4.69833-1.70933-9.96086Z" transform="translate(-0.00018)"/><path class="cls-1" d="M15.198,18.08825,7.97109,20.43647,6.26182,30.39733,15.198,25.699Z" transform="translate(-0.00018)"/></g></g></svg>