<?xml version="1.0" encoding="UTF-8"?>
<svg width="74px" height="76px" viewBox="0 0 74 76" version="1.1" xmlns="http://www.w3.org/2000/svg" xmlns:xlink="http://www.w3.org/1999/xlink">
    <title>jira</title>
    <defs>
        <linearGradient x1="67.6800148%" y1="40.3276956%" x2="40.820818%" y2="81.6596195%" id="linearGradient-1">
            <stop stop-color="#0052CC" offset="18%"></stop>
            <stop stop-color="#2684FF" offset="100%"></stop>
        </linearGradient>
        <linearGradient x1="32.6559851%" y1="59.1664468%" x2="59.3430302%" y2="17.9899763%" id="linearGradient-2">
            <stop stop-color="#0052CC" offset="18%"></stop>
            <stop stop-color="#2684FF" offset="100%"></stop>
        </linearGradient>
    </defs>
    <g id="Page-1" stroke="none" stroke-width="1" fill="none" fill-rule="evenodd">
        <g id="jira" fill-rule="nonzero">
            <path d="M72.3973601,35.76 L39.7973601,3.16 L36.6373601,0 L36.6373601,0 L12.0973601,24.54 L12.0973601,24.54 L0.877360134,35.76 C-0.292453378,36.9312702 -0.292453378,38.8287298 0.877360134,40 L23.2973601,62.42 L36.6373601,75.76 L61.1773601,51.22 L61.5573601,50.84 L72.3973601,40 C73.5671736,38.8287298 73.5671736,36.9312702 72.3973601,35.76 Z M36.6373601,49.08 L25.4373601,37.88 L36.6373601,26.68 L47.8373601,37.88 L36.6373601,49.08 Z" id="Shape" fill="#2684FF"></path>
            <path d="M36.6373601,26.68 C29.3044384,19.346212 29.2687003,7.46777926 36.5573601,0.09 L12.0473601,24.59 L25.3873601,37.93 L36.6373601,26.68 Z" id="Path" fill="url(#linearGradient-1)"></path>
            <path d="M47.8673601,37.85 L36.6373601,49.08 C40.1767231,52.6172581 42.1652935,57.4160731 42.1652935,62.42 C42.1652935,67.4239269 40.1767231,72.2227419 36.6373601,75.76 L36.6373601,75.76 L61.2073601,51.19 L47.8673601,37.85 Z" id="Path" fill="url(#linearGradient-2)"></path>
        </g>
    </g>
</svg>