<?xml version="1.0"?>
<svg xmlns="http://www.w3.org/2000/svg" xmlns:xlink="http://www.w3.org/1999/xlink" xmlns:svgjs="http://svgjs.com/svgjs" version="1.1" width="512" height="512" x="0" y="0" viewBox="0 0 779.938 779.938" style="enable-background:new 0 0 512 512" xml:space="preserve" class=""><g>
<g xmlns="http://www.w3.org/2000/svg">
	<g>
		<path d="M695.945,779.938v-18.232c0-1.219,0.009-2.367,0.009-3.473c0.009-2.352,0.026-4.578-0.026-6.875    c-1.379-69.627-7.194-137.166-17.287-200.764c-11.976-75.422-28.688-143.527-51.092-208.221    c-29.466-85.074-64.658-155.618-107.575-215.646C483.401,75.564,444.188,36.333,400.122,6.805L389.968,0l-10.146,6.805    c-44.075,29.537-83.28,68.759-119.86,119.922c-42.917,60.027-78.11,130.572-107.575,215.646    c-22.404,64.694-39.117,132.799-51.092,208.221c-10.093,63.59-15.908,131.137-17.287,200.764    c-0.044,2.297-0.035,4.523-0.026,6.885c0.009,1.096,0.009,2.244,0.009,3.463v18.232H695.945z M145.422,743.473l31.976-61.379    c0.132-0.256,0.477-0.955,0.999-2.086c11.41-24.312,53.708-108.113,118.729-165.393l4.472-3.941l5.029-22.855l14.159,11.869    l69.166-22.316l69.165,22.316l14.167-11.869l5.029,22.855l4.472,3.941c65.029,57.279,107.319,141.08,118.737,165.393    c0.53,1.131,0.875,1.83,1.008,2.086l31.976,61.379H145.422z M188.021,588.164c3.588-29.643,8.979-60.619,18.931-91.172    c15.678-48.158,40.044-86.32,74.221-116.104l46.629,66.073l4.295-49.705c0.512-5.975,1.025-11.79,1.529-17.499    c0.999-11.427,1.962-22.395,2.854-33.266l20.973-7.68c2.987,5.983,6.062,11.966,9.244,18.135c2.307,4.49,4.658,9.042,7.009,13.699    l14.645,28.91l-18.507,39.098c-1.326,2.803-2.607,5.506-3.862,8.158l-37.208,12.01l-44.817-37.551l-15.422,70.021    C235.64,521.227,208.675,556.4,188.021,588.164z M391.594,399.545l14.645-28.909c2.359-4.648,4.701-9.2,7.008-13.69    c3.173-6.178,6.258-12.161,9.245-18.144l20.98,7.68c0.893,10.871,1.856,21.83,2.855,33.257c0.503,5.709,1.016,11.534,1.528,17.509    l4.296,49.703l46.629-66.072c34.176,29.792,58.542,67.955,74.221,116.103c9.951,30.562,15.334,61.531,18.931,91.174    c-20.654-31.764-47.619-66.939-80.522-96.883l-15.422-70.021l-44.817,37.551l-37.208-12.01c-1.246-2.643-2.527-5.338-3.844-8.131    L391.594,399.545z M137.309,556.312c11.631-73.285,27.839-139.357,49.537-202c28.308-81.724,61.927-149.228,102.785-206.375    c8.802-12.311,17.755-23.862,26.876-34.697c12.868-2.077,24.967-7.132,33.425-17.879c6.16-7.822,9.562-17.473,10.349-27.354    c9.651-8.582,19.541-16.527,29.687-23.845c10.146,7.327,20.035,15.263,29.687,23.845c0.786,9.881,4.188,19.532,10.349,27.354    c8.458,10.747,20.566,15.802,33.434,17.879c9.13,10.835,18.074,22.386,26.877,34.697c40.857,57.146,74.477,124.65,102.785,206.375    c21.696,62.643,37.896,128.725,49.536,202c9.421,59.328,15.016,122.246,16.65,187.16h-13.866l-8.6-71.967    c-1.352-11.285-2.457-23.826-3.632-37.092c-3.81-43.059-8.556-96.652-25.516-148.717    c-20.238-62.156-53.505-109.855-101.689-145.817l-15.007-11.198l-11.091,15.723c-0.345-4.163-0.681-8.299-0.999-12.435    l-0.91-11.684l-74.194-27.168l-7.062,15.21c-2.165,4.667-4.419,9.297-6.752,13.973c-2.333-4.675-4.587-9.306-6.752-13.973    l-7.062-15.201l-74.194,27.167l-0.911,11.684c-0.318,4.136-0.654,8.272-0.999,12.435l-11.092-15.723l-15.007,11.198    c-48.184,35.961-81.45,83.652-101.689,145.818c-16.951,52.062-21.697,105.656-25.506,148.715    c-1.175,13.275-2.289,25.807-3.632,37.094l-8.6,71.957h-13.867C122.293,678.559,127.888,615.641,137.309,556.312z" fill="#ffffff" data-original="#000000" style="" class=""/>
	</g>
</g>
<g xmlns="http://www.w3.org/2000/svg">
</g>
<g xmlns="http://www.w3.org/2000/svg">
</g>
<g xmlns="http://www.w3.org/2000/svg">
</g>
<g xmlns="http://www.w3.org/2000/svg">
</g>
<g xmlns="http://www.w3.org/2000/svg">
</g>
<g xmlns="http://www.w3.org/2000/svg">
</g>
<g xmlns="http://www.w3.org/2000/svg">
</g>
<g xmlns="http://www.w3.org/2000/svg">
</g>
<g xmlns="http://www.w3.org/2000/svg">
</g>
<g xmlns="http://www.w3.org/2000/svg">
</g>
<g xmlns="http://www.w3.org/2000/svg">
</g>
<g xmlns="http://www.w3.org/2000/svg">
</g>
<g xmlns="http://www.w3.org/2000/svg">
</g>
<g xmlns="http://www.w3.org/2000/svg">
</g>
<g xmlns="http://www.w3.org/2000/svg">
</g>
</g></svg>
