<?xml version="1.0" encoding="UTF-8"?>
<svg width="71px" height="81px" viewBox="0 0 71 81" version="1.1" xmlns="http://www.w3.org/2000/svg" xmlns:xlink="http://www.w3.org/1999/xlink">
    <title>html5</title>
    <g id="Page-1" stroke="none" stroke-width="1" fill="none" fill-rule="evenodd">
        <g id="html5" fill-rule="nonzero">
            <polygon id="Path" fill="#E44D26" points="6.45410736 72.9583836 0.00992303079 0.678170732 70.8215984 0.678170732 64.3703329 72.9469572 35.3723081 80.9863355"></polygon>
            <polygon id="Path" fill="#F16529" points="35.4157607 74.8414914 58.8473441 68.345003 64.3606767 6.58837065 35.4157607 6.58837065"></polygon>
            <path d="M35.4157607,33.3960616 L23.6854848,33.3960616 L22.8751739,24.3183267 L35.4157607,24.3183267 L35.4157607,15.4533487 L13.1866883,15.4533487 L13.3991234,17.8316553 L15.5778699,42.2607177 L35.4157607,42.2607177 L35.4157607,33.3960616 Z M35.4157607,56.4188685 L35.3768143,56.4294902 L25.5040574,53.7634306 L24.8728679,46.6935286 L15.9740934,46.6935286 L17.2161945,60.6126899 L35.3752049,65.6536765 L35.4157607,65.6422501 L35.4157607,56.4188685 Z" id="Shape" fill="#EBEBEB"></path>
            <path d="M35.3851829,33.3960616 L35.3851829,42.2607177 L46.3014464,42.2607177 L45.2722631,53.7579588 L35.3851829,56.4262715 L35.3851829,65.6490094 L53.5586775,60.6126899 L53.6916104,59.1145402 L55.775083,35.7766214 L55.9913804,33.3960616 L53.6027739,33.3960616 L35.3851829,33.3960616 Z M35.3851829,15.4533487 L35.3851829,24.3183267 L56.7981507,24.3183267 L56.9756627,22.3256218 L57.3796112,17.8316553 L57.5917243,15.4533487 L35.3851829,15.4533487 Z" id="Shape" fill="#FFFFFF"></path>
        </g>
    </g>
</svg>