<?xml version="1.0" encoding="UTF-8"?>
<svg width="64px" height="61px" viewBox="0 0 64 61" version="1.1" xmlns="http://www.w3.org/2000/svg" xmlns:xlink="http://www.w3.org/1999/xlink">
    <title>logo-confluence</title>
    <defs>
        <linearGradient x1="99.140087%" y1="65.7068123%" x2="33.8589812%" y2="46.9329228%" id="linearGradient-1">
            <stop stop-color="#0052CC" offset="18%"></stop>
            <stop stop-color="#2684FF" offset="100%"></stop>
        </linearGradient>
        <linearGradient x1="0.92569163%" y1="34.3043893%" x2="66.1800713%" y2="53.0862751%" id="linearGradient-2">
            <stop stop-color="#0052CC" offset="18%"></stop>
            <stop stop-color="#2684FF" offset="100%"></stop>
        </linearGradient>
    </defs>
    <g id="Page-1" stroke="none" stroke-width="1" fill="none" fill-rule="evenodd">
        <g id="logo-confluence" fill-rule="nonzero">
            <path d="M3.23,46.53 C2.58,47.59 1.85,48.82 1.23,49.8 C0.675051866,50.7377932 0.972970238,51.9472528 1.9,52.52 L14.9,60.52 C15.3563267,60.8017439 15.9066877,60.8884166 16.4275199,60.7605589 C16.948352,60.6327012 17.396014,60.3010265 17.67,59.84 C18.19,58.97 18.86,57.84 19.59,56.63 C24.74,48.13 29.92,49.17 39.26,53.63 L52.15,59.76 C52.63819,59.9923645 53.1996589,60.0171765 53.7064427,59.828781 C54.2132266,59.6403855 54.6221444,59.254835 54.84,58.76 L61.03,44.76 C61.4673336,43.7601044 61.0223391,42.594219 60.03,42.14 C57.31,40.86 51.9,38.31 47.03,35.96 C29.51,27.45 14.62,28 3.23,46.53 Z" id="Path" fill="url(#linearGradient-1)"></path>
            <path d="M61.52,14.76 C62.17,13.7 62.9,12.47 63.52,11.49 C64.0749481,10.5522068 63.7770298,9.34274716 62.85,8.77 L49.85,0.77 C49.3899499,0.460141645 48.8218804,0.355251696 48.2815113,0.480389807 C47.7411422,0.605527917 47.2770092,0.949454225 47,1.43 C46.48,2.3 45.81,3.43 45.08,4.64 C39.93,13.14 34.75,12.1 25.41,7.64 L12.56,1.54 C12.07181,1.30763549 11.5103411,1.28282354 11.0035573,1.47121901 C10.4967734,1.65961449 10.0878556,2.04516503 9.87,2.54 L3.68,16.54 C3.24266642,17.5398956 3.68766087,18.705781 4.68,19.16 C7.4,20.44 12.81,22.99 17.68,25.34 C35.24,33.84 50.13,33.27 61.52,14.76 Z" id="Path" fill="url(#linearGradient-2)"></path>
        </g>
    </g>
</svg>