<svg xmlns="http://www.w3.org/2000/svg" viewBox="0 0 240 234"><defs><style>.cls-1{fill:#49021f;}.cls-2{fill:#f36;}</style></defs><g id="Layer_2" data-name="Layer 2"><g id="Layer_1-2" data-name="Layer 1"><g id="Surfaces"><g id="Publishing_Surface" data-name="Publishing Surface"><g id="Outline_no_shadow" data-name="Outline no shadow"><path class="cls-1" d="M42.5,0h155A42.46433,42.46433,0,0,1,240,42.5v149A42.46433,42.46433,0,0,1,197.5,234H42.5A42.46433,42.46433,0,0,1,0,191.5V42.5A42.46433,42.46433,0,0,1,42.5,0Z"/></g></g></g><g id="Outlined_Mnemonics_Logos" data-name="Outlined Mnemonics Logos"><g id="Id"><path class="cls-2" d="M87.2,61.2V163.8c0,1.1-.5,1.6-1.4,1.6H66.2c-.9,0-1.3-.5-1.3-1.6V61.2c0-.9.5-1.3,1.4-1.3H85.8a1.12988,1.12988,0,0,1,1.3,1A.3674.3674,0,0,1,87.2,61.2Z"/><path class="cls-2" d="M144.8,167a49.71526,49.71526,0,0,1-21.5-4.5,34.86313,34.86313,0,0,1-15.1-13.6c-3.7-6.1-5.5-13.7-5.5-22.8a41.07085,41.07085,0,0,1,5.5-21.1,41.52742,41.52742,0,0,1,15.9-15.5c7-3.9,15.4-5.8,25.3-5.8a17.85763,17.85763,0,0,1,2.1.1c.9.1,1.9.1,3.1.2V52.4c0-.7.3-1.1,1-1.1h20.3a.89671.89671,0,0,1,1,.7v95.4c0,1.8.1,3.8.2,6,.2,2.1.3,4.1.4,5.8a1.62391,1.62391,0,0,1-1,1.6,76.37131,76.37131,0,0,1-16.3,4.8A87.337,87.337,0,0,1,144.8,167Zm9.8-20V103a25.57893,25.57893,0,0,0-2.7-.5c-1.1-.1-2.2-.2-3.3-.2a24.6518,24.6518,0,0,0-11.3,2.6,22.418,22.418,0,0,0-8.5,7.4c-2.2,3.2-3.3,7.5-3.3,12.7a27.86667,27.86667,0,0,0,1.7,10.3,19.54412,19.54412,0,0,0,4.5,7.1,17.27614,17.27614,0,0,0,6.8,4,26.17641,26.17641,0,0,0,8.3,1.3c1.5,0,2.9-.1,4.2-.2A8.51579,8.51579,0,0,0,154.6,147Z"/></g></g></g></g></svg>