<?xml version="1.0" encoding="UTF-8"?>
<svg width="196px" height="437px" viewBox="0 0 196 437" version="1.1" xmlns="http://www.w3.org/2000/svg" xmlns:xlink="http://www.w3.org/1999/xlink">
    <title>Group</title>
    <g id="Page-1" stroke="none" stroke-width="1" fill="none" fill-rule="evenodd">
        <g id="Group" fill-rule="nonzero">
            <path d="M192.5143,173.77 C169.5143,72.3 121.5143,45.28 109.3343,26.18 C102.7143,15.79 95.9643004,0 95.9643004,0 C95.3043004,9 94.1343004,14.7 86.4543004,21.54 C71.0743004,35.25 5.71430036,88.51 0.224300359,203.81 C-4.89569964,311.31 79.2243004,377.61 90.4043004,384.46 C98.9443004,388.66 109.4043,384.54 114.4043,380.69 C154.9443,352.85 210.4043,278.62 192.4643,173.77" id="Path" fill="#10AA50"></path>
            <path d="M99.4443004,327.2 C97.3343004,353.82 95.8143004,369.31 90.4443004,384.49 C90.4443004,384.49 93.9843004,409.82 96.4443004,436.66 L105.2143,436.66 C107.307809,417.756379 110.503246,398.991115 114.7843,380.46 C103.4243,374.89 99.8743004,350.55 99.4443004,327.2 Z" id="Path" fill="#B8C4C2"></path>
            <path d="M114.7743,380.48 L114.7743,380.48 C103.2943,375.18 99.9743004,350.35 99.4643004,327.2 C102.292762,289.032791 103.11056,250.74317 101.9143,212.49 C101.3143,192.42 102.2143,26.57 96.9743004,2.29 C99.0943004,7.04 104.2143,18.2 109.3343,26.17 C121.5643,45.28 169.5243,72.3 192.5043,173.78 C210.4143,278.36 155.2843,352.46 114.7743,380.48 Z" id="Path" fill="#12924F"></path>
        </g>
    </g>
</svg>