<?xml version="1.0" encoding="UTF-8"?>
<svg width="469px" height="52px" viewBox="0 0 469 52" version="1.1" xmlns="http://www.w3.org/2000/svg" xmlns:xlink="http://www.w3.org/1999/xlink">
    <title>mole-hole</title>
    <g id="website" stroke="none" stroke-width="1" fill="none" fill-rule="evenodd">
        <g id="mole-hole" transform="translate(0.000000, 0.109589)" fill-rule="nonzero">
            <path d="M442.747553,50.8923682 L25.4481414,50.8923682 C11.3933466,50.8923682 0,39.4990215 0,25.4442268 C0,11.389433 11.3933466,0 25.4481414,0 L442.747553,0 C456.798434,0 468.191781,11.3933466 468.191781,25.4442268 C468.191781,39.4990215 456.798434,50.8923682 442.747553,50.8923682 Z" id="Path" fill="#D8D7DA"></path>
            <path d="M53.9021526,25.4442268 C53.9021526,11.389433 65.2915846,0 79.3463794,0 L25.4481414,0 C11.3933466,0 0,11.3933466 0,25.4442268 C0,39.4990215 11.3933466,50.8923682 25.4481414,50.8923682 L79.3463794,50.8923682 C65.2915846,50.8923682 53.9021526,39.4990215 53.9021526,25.4442268 Z" id="Path" fill="#C6C5CA"></path>
        </g>
    </g>
</svg>