<?xml version="1.0" encoding="UTF-8"?>
<svg width="411px" height="332px" viewBox="0 0 411 332" version="1.1" xmlns="http://www.w3.org/2000/svg" xmlns:xlink="http://www.w3.org/1999/xlink">
    <title>mole</title>
    <g id="website" stroke="none" stroke-width="1" fill="none" fill-rule="evenodd">
        <g id="mole" transform="translate(0.095890, 0.205479)" fill-rule="nonzero">
            <path d="M410,86.7866933 C410,106.285714 394.195695,122.09002 374.696673,122.09002 C355.201566,122.09002 339.393347,106.285714 339.393347,86.7866933 C339.393347,67.2876712 355.201566,51.4833665 374.696673,51.4833665 C394.195695,51.4833665 410,67.2876712 410,86.7866933 L410,86.7866933 Z" id="Path" fill="#774839"></path>
            <path d="M70.6066536,86.7866933 C70.6066536,106.285714 54.8023488,122.09002 35.3033278,122.09002 C15.8043058,122.09002 0,106.285714 0,86.7866933 C0,67.2876712 15.8043058,51.4833665 35.3033278,51.4833665 C54.8023488,51.4833665 70.6066536,67.2876712 70.6066536,86.7866933 L70.6066536,86.7866933 Z" id="Path" fill="#774839"></path>
            <path d="M205.001957,0 C106.637965,0 26.9001964,79.7377688 26.9001964,178.097847 L26.9001964,331.694716 L383.099805,331.694716 L383.099805,178.097847 C383.099805,79.7377688 303.362036,0 205.001957,0 Z" id="Path" fill="#B2785B"></path>
            <path d="M225.796478,1.21722139 C218.974561,0.422700587 212.035225,0 205.001957,0 C106.637965,0 26.9001964,79.7377688 26.9001964,178.097847 L26.9001964,331.694716 L68.4931517,331.694716 L68.4931517,178.097847 C68.4931517,86.7749513 137.236791,11.5185912 225.796478,1.21722139 Z" id="Path" fill="#935B45"></path>
            <g id="Group" transform="translate(131.745598, 137.189824)" fill="#222223">
                <path d="M88.7397258,40.407045 C82.7788645,40.407045 77.3463791,38.129159 73.2563598,34.399218 C69.1663405,38.129159 63.7299405,40.407045 57.7729939,40.407045 C45.0919763,40.407045 34.7749508,30.0900196 34.7749508,17.409002 C34.7749508,13.260274 38.1369863,9.89432485 42.2896279,9.89432485 C46.4383559,9.89432485 49.804305,13.260274 49.804305,17.409002 C49.804305,21.8043055 53.3776903,25.3776908 57.7729939,25.3776908 C62.1643828,25.3776908 65.7416827,21.8043055 65.7416827,17.409002 C65.7416827,13.260274 69.1037182,9.89432485 73.2563598,9.89432485 C77.4050878,9.89432485 80.7710369,13.260274 80.7710369,17.409002 C80.7710369,21.8043055 84.3444222,25.3776908 88.7397258,25.3776908 C93.1311147,25.3776908 96.704501,21.8043055 96.704501,17.409002 C96.704501,13.260274 100.07045,9.89432485 104.219178,9.89432485 C108.37182,9.89432485 111.733855,13.260274 111.733855,17.409002 C111.733855,30.0900196 101.41683,40.407045 88.7397258,40.407045 L88.7397258,40.407045 Z" id="Path"></path>
                <path d="M138.994129,26.7475543 C134.841487,26.7475543 131.479452,23.3855188 131.479452,19.2328772 L131.479452,7.5146771 C131.479452,3.36203548 134.841487,0 138.994129,0 C143.146771,0 146.508806,3.36203548 146.508806,7.5146771 L146.508806,19.2328772 C146.508806,23.3855188 143.146771,26.7475543 138.994129,26.7475543 Z" id="Path"></path>
                <path d="M7.5146771,26.7475543 C3.36594912,26.7475543 0,23.3855188 0,19.2328772 L0,7.5146771 C0,3.36203548 3.36594912,0 7.5146771,0 C11.6673187,0 15.0293542,3.36203548 15.0293542,7.5146771 L15.0293542,19.2328772 C15.0293542,23.3855188 11.6673187,26.7475543 7.5146771,26.7475543 Z" id="Path"></path>
            </g>
            <path d="M276.60274,186.097847 L264.880627,186.097847 C260.727984,186.097847 257.36595,182.731898 257.36595,178.58317 C257.36595,174.430529 260.727984,171.068493 264.880627,171.068493 L276.60274,171.068493 C280.751469,171.068493 284.117417,174.430529 284.117417,178.58317 C284.117417,182.731898 280.751469,186.097847 276.60274,186.097847 Z" id="Path" fill="#EAEAEA"></path>
            <path d="M145.119374,186.097847 L133.401175,186.097847 C129.248533,186.097847 125.886498,182.731898 125.886498,178.58317 C125.886498,174.430529 129.248533,171.068493 133.401175,171.068493 L145.123288,171.068493 C149.272016,171.068493 152.637965,174.430529 152.637965,178.58317 C152.637965,182.731898 149.272016,186.097847 145.119374,186.097847 Z" id="Path" fill="#EAEAEA"></path>
        </g>
    </g>
</svg>