<svg id="Capa_1" enable-background="new 0 0 497 497" height="512" viewBox="0 0 497 497" width="512" xmlns="http://www.w3.org/2000/svg"><g><path d="m437.26 410.099-28.91-15.33v-.01l-1.77-.98-54.67-30.47-64.7-80.33 80.86-29.66 24.04-8.82 44.95 157.85s0 .01.01.03l.04.16c.18.8.84 4.04.15 7.56z" fill="#6e61b6"/><path d="m437.26 410.099-28.91-15.33v-.01l-3.33-11.67-.11-.4-36.84-129.37 24.04-8.82 44.95 157.85s0 .01.01.03l.04.16c.18.8.84 4.04.15 7.56z" fill="#6354b1"/><path d="m437.26 410.099c-.05.22-.1.45-.16.68-.6 2.44-1.9 4.96-4.49 6.83l-.01.01-30.52 22c-6.17 4.45-14.25 5.26-21.18 2.13l-5.11-2.31-50.31-22.7c-6.12-2.76-10.57-8.25-12.02-14.8l-26.25-118.96 117.7 99.71.01.01z" fill="#978ecb"/><path d="m437.26 410.099c-.05.22-.1.45-.16.68-.6 2.44-1.9 4.96-4.49 6.83l-.01.01-30.52 22c-6.17 4.45-14.25 5.26-21.18 2.13l-5.12-2.3.01-.01 12.56-9.06c11.92-8.59 18.55-22.38 18.23-36.6-.07-3.56-.58-7.15-1.56-10.69-.03-.13-.06-.26-.1-.39z" fill="#8379c1"/><path d="m287.211 282.979 197.876-33.95c6.882-1.181 11.912-7.148 11.912-14.13v-167.2c0-7.918-6.419-14.336-14.336-14.336h-106.974c-4.117 0-8.036 1.77-10.758 4.86l-77.72 88.228-17.523 64.915z" fill="#ff8086"/><path d="m482.664 53.363h-26.547c7.918 0 14.336 6.419 14.336 14.336v167.2c0 6.982-5.03 12.949-11.912 14.13l-172.411 29.533 1.081 4.417 197.877-33.95c6.882-1.181 11.912-7.148 11.912-14.13v-167.2c0-7.918-6.419-14.336-14.336-14.336z" fill="#e5646e"/><path d="m209.79 282.979-74.12 80.33-75.93 46.79c-.69-3.52-.03-6.76.15-7.56l.04-.16c.01-.02.01-.03.01-.03l44.95-157.85 79.94 29.32z" fill="#6e61b6"/><path d="m209.79 282.98-34.736 37.649 9.776-46.809z" fill="#6354b1"/><path d="m209.79 146.45 15.233 64.258-15.233 72.272-23.55-4.04-174.33-29.91c-6.88-1.18-11.91-7.15-11.91-14.13v-167.2c0-7.92 6.42-14.34 14.34-14.34h106.97c4.12 0 8.04 1.77 10.76 4.86l54.17 61.5z" fill="#ff8086"/><path d="m209.79 146.45 15.233 64.259-15.233 72.271-23.55-4.04v-159.22z" fill="#e5646e"/><path d="m209.79 282.979-26.25 118.96c-1.45 6.56-5.9 12.04-12.02 14.8l-55.42 25.02c-6.93 3.13-15.01 2.31-21.18-2.14l-30.52-22-.01-.01c-2.65-1.91-3.95-4.5-4.53-6.99-.05-.18-.08-.35-.12-.52z" fill="#978ecb"/><path d="m177.138 310.646-20.145 91.295c-1.446 6.553-5.901 12.039-12.017 14.8l-50.303 22.704.246.177c6.171 4.449 14.249 5.262 21.184 2.132l55.42-25.014c6.117-2.761 10.571-8.247 12.017-14.8l26.249-118.958z" fill="#8379c1"/><path d="m287.21 109.539v207.18l-38.71 15.999-38.71-15.999v-207.18c0-6.36 5.15-11.5 11.5-11.5h54.42c6.35 0 11.5 5.14 11.5 11.5z" fill="#978ecb"/><path d="m275.711 98.034h-23.547c6.351 0 11.5 5.149 11.5 11.5v207.188l9.78 5.686 13.766-5.686v-207.188c.001-6.351-5.147-11.5-11.499-11.5z" fill="#8379c1"/><g><path d="m256 98.039v218.68l-7.5 3.91-7.5-3.91v-218.68z" fill="#8379c1"/></g><path d="m216.046 352.233 22.374 23.506c5.485 5.762 14.675 5.762 20.16 0l22.374-23.506c4.017-4.221 6.258-9.824 6.258-15.651v-19.86h-77.423v19.86c0 5.827 2.24 11.431 6.257 15.651z" fill="#c2bce0"/><path d="m263.665 316.722v19.839c0 5.839-2.25 11.454-6.283 15.678l-14.139 14.806c-2.481 2.607-5.722 4.022-9.034 4.27l4.211 4.424c5.485 5.762 14.675 5.762 20.16 0l22.374-23.506c4.017-4.221 6.258-9.824 6.258-15.651v-19.86z" fill="#aca6d6"/></g></svg>