<svg id="Capa_1" enable-background="new 0 0 497 497" height="512" viewBox="0 0 497 497" width="512" xmlns="http://www.w3.org/2000/svg"><g><path d="m406.59 430.27h-290.61c-15.29 0-25.93-15.22-20.67-29.59l71.89-196.49 73.4.005z" fill="#8d9ca8"/><path d="m406.59 430.27h-272.34l78.55-226.08 27.8.005z" fill="#7a8c98"/><path d="m497 327.1v88.088c0 8.078-2.572 15.946-7.344 22.464l-26.391 36.047c-7.162 9.782-18.559 15.564-30.683 15.564h-65.452l20.299-58.993 51.104-47.747 13.337-19.944 27.343-40.878c5.34-7.982 17.787-4.203 17.787 5.399z" fill="#edf4ff"/><path d="m479.214 321.7-10.018 14.977v78.511c0 8.078-2.572 15.946-7.344 22.464l-26.391 36.047c-7.162 9.782-18.559 15.564-30.683 15.564h27.804c12.124 0 23.521-5.781 30.683-15.564l26.391-36.047c4.772-6.518 7.344-14.386 7.344-22.464v-88.088c0-9.602-12.447-13.381-17.786-5.4z" fill="#dbeaff"/><path d="m438.533 382.523-71.403 106.74h-194.615c-15.146 0-25.769-14.937-20.798-29.244l88.883-255.824h35.614z" fill="#b6c4cf"/><path d="m276.214 204.195h-27.804l151.455 166.393c6.382 7.011 7.162 17.47 1.89 25.35l-62.429 93.325h27.804l71.403-106.74z" fill="#9facba"/><path d="m103.846 98.635-15.77-43.905-68.852-44.939c-9.032-5.895-20.77 1.73-19.055 12.379l21.569 133.942z" fill="#edf4ff"/><g><path d="m7.416 20.116 52.856 34.613 37.534 27.091-9.73-27.091-68.852-44.938c-7.822-5.105-17.666-.069-19.052 8.288 2.41-.097 4.916.518 7.244 2.037z" fill="#dbeaff"/></g><path d="m247.005 98.635 15.77-43.906 68.852-44.939c9.032-5.895 20.77 1.73 19.055 12.379l-21.569 133.942z" fill="#edf4ff"/><path d="m331.627 9.791-13.875 9.056c3.635 2.548 5.956 6.985 5.126 12.134l-17.477 108.532 23.712 16.598 21.569-133.942c1.715-10.648-10.023-18.274-19.055-12.378z" fill="#dbeaff"/><path d="m329.11 156.11-52.96 80.95c-8.35 12.75-22.56 20.43-37.79 20.43h-125.87c-15.23 0-29.44-7.68-37.78-20.43l-52.97-80.95 66.34-101.38h174.7z" fill="#b6c4cf"/><path d="m262.775 54.729h-27.804l61.052 93.302c3.212 4.908 3.212 11.252 0 16.16l-47.681 72.869c-8.343 12.75-22.552 20.433-37.789 20.433h27.804c15.237 0 29.446-7.683 37.789-20.433l52.969-80.949z" fill="#9facba"/><g><path d="m182.93 208.36v49.13h-15v-49.13c0-4.14 3.35-7.5 7.5-7.5 4.14 0 7.5 3.36 7.5 7.5z" fill="#9facba"/></g><g><path d="m175.426 215.862c-1.989 0-3.897-.79-5.303-2.197l-18.253-18.253c-2.929-2.929-2.929-7.678 0-10.606 2.929-2.929 7.678-2.929 10.606 0l12.95 12.95 12.95-12.95c2.929-2.929 7.678-2.929 10.606 0 2.929 2.929 2.929 7.677 0 10.606l-18.253 18.253c-1.406 1.407-3.314 2.197-5.303 2.197z" fill="#7a8c98"/></g></g></svg>