<svg id="Capa_1" enable-background="new 0 0 493.308 493.308" height="512" viewBox="0 0 493.308 493.308" width="512" xmlns="http://www.w3.org/2000/svg"><g><path d="m211.653 134.908v42.499l-20.982 9.94-20.982-9.94 31.098-45.399c2.971-5.168 10.866-3.061 10.866 2.9z" fill="#8bb3ea"/><path d="m281.595 134.908v42.499l20.982 9.94 20.982-9.94-31.098-45.399c-2.97-5.168-10.866-3.061-10.866 2.9z" fill="#8bb3ea"/><path d="m74.565 140.826 33.924-74.767c2.372-5.229-2.403-10.863-7.95-9.379l-25.974 6.949-6.503 35.003z" fill="#db4655"/><path d="m74.564 32.255v108.57l-27.18 18.84-47.38-3.57c-.05-2.95 1.05-5.27 1.19-5.54.01-.02.01-.03.01-.03l.23-.45 40.68-78.62 21.64-41.83c2.76-5.33 10.81-3.37 10.81 2.63z" fill="#ff9a9f"/><path d="m74.564 32.255v108.57l-27.18 18.84-47.38-3.57c-.05-2.95 1.05-5.27 1.19-5.54.01-.02.01-.03.01-.03l.23-.45 36.98-7.57c4.76-.98 8.18-5.17 8.18-10.03v-55.44c0-3.05-2.08-5.04-4.48-5.58l21.64-41.83c2.76-5.33 10.81-3.37 10.81 2.63z" fill="#ff8086"/><path d="m141.174 177.405-79.22 71.08-17.31-24.95-42.84-61.76c-1.21-1.73-1.69-3.54-1.79-5.18-.01-.17-.02-.33-.01-.5l74.56-15.27z" fill="#db4655"/><path d="m141.174 177.405-79.22 71.08-10.73-15.47-6.58-9.48 13.96-31.08c4.12-9.16 13.22-15.05 23.26-15.05h31.33l-59.01-32.41 20.38-4.17z" fill="#bd4150"/><path d="m418.684 140.826-33.924-74.767c-2.372-5.229 2.403-10.863 7.95-9.379l25.974 6.949 4.918 34.954z" fill="#db4655"/><path d="m493.304 156.105-44.2.37-11.93-6.14-18.49-9.51v-108.57c0-6 8.05-7.96 10.81-2.63l62.88 121.54s0 .01.01.02c.11.25.97 2.31.92 4.92z" fill="#ff9a9f"/><path d="m493.304 156.105-20.735.174-8.715-6.204-38.77-75.19c-1.85-2.08-4.21-3.03-6.4-3.08v-39.55c0-6 8.05-7.96 10.81-2.63l62.88 121.54s0 .01.01.02c.11.25.97 2.31.92 4.92z" fill="#ff8086"/><path d="m493.304 156.105c.01.12 0 .24-.01.37-.07 1.48-.45 3.13-1.43 4.69-.07.12-.15.23-.23.35l-60.34 86.97-17.24-15.47-61.98-55.61 59.01-32.41 7.6-4.17 45.17 9.25z" fill="#db4655"/><path d="m493.304 156.105c.01.12 0 .24-.01.37-.07 1.48-.45 3.13-1.43 4.69-.07.12-.15.23-.23.35l-60.34 86.97-17.24-15.47 49.86-71.87c1.05-1.52.8-3.44-.31-4.67-.51-.56-1.2-.97-2.02-1.14l-24.41-5-26.09-5.34 7.6-4.17 45.17 9.25z" fill="#bd4150"/><path d="m447.004 434.315c-.29 2.21-1.29 4.69-3.73 6.99-.04.04-.08.08-.12.12l-24.97 23.1c-4.9 4.54-12.89 1.88-14.1-4.69l-6.92-37.56 16.6-2.42 9.84-1.44z" fill="#8bb3ea"/><path d="m447.094 433.195c-.01.36-.04.73-.09 1.12l-49.84-12.04-52.88-12.77 40.39-42.76 17.71-18.75 43.49 79.42s.02.04.06.13c.27.55 1.25 2.79 1.16 5.65z" fill="#db4655"/><path d="m447.094 433.195c-.01.36-.04.73-.09 1.12l-29.19-7.06-4.05-7.4-29.09-53.11 17.71-18.75 43.49 79.42s.02.04.06.13c.27.55 1.25 2.79 1.16 5.65z" fill="#bd4150"/><path d="m96.084 422.275-6.92 37.56c-1.21 6.57-9.2 9.23-14.1 4.69l-24.97-23.1c-.04-.04-.08-.08-.12-.12-2.45-2.3-3.44-4.79-3.72-7l20.46-13.83z" fill="#8bb3ea"/><path d="m148.964 409.505-14.54 3.51-38.34 9.26-49.83 12.03c-.05-.37-.08-.74-.09-1.09-.1-2.91.92-5.19 1.17-5.7l.05-.1 2.69-4.92 16.64-30.39 7.61-13.9 16.54-30.21z" fill="#db4655"/><path d="m148.964 409.505-14.54 3.51-38.34 9.26-49.83 12.03c-.05-.37-.08-.74-.09-1.09-.1-2.91.92-5.19 1.17-5.7l.05-.1 2.69-4.92 46.999-11.346c3.033-.732 4.143-4.469 2-6.738-.522-.553-1.189-.948-1.925-1.141l-19.444-5.085c-4.17-1.09-7.93-3.2-10.99-6.08l7.61-13.9 16.54-30.21z" fill="#bd4150"/><path d="m443.684 296.435-39.31 87.53c-3.16 7.04-9.34 12.27-16.81 14.22l-130.91 34.23c-.84.22-1.68.41-2.53.57-4.96.96-10.04.96-15 0-.85-.16-1.69-.35-2.53-.57l-130.91-34.23c-7.47-1.95-13.65-7.18-16.81-14.22l-39.31-87.53c-2.91-6.48-2.91-13.89 0-20.37l37.55-83.61c4.11-9.16 13.22-15.05 23.26-15.05h272.5c10.04 0 19.15 5.89 23.26 15.05l37.55 83.61c2.91 6.48 2.91 13.89 0 20.37z" fill="#ff8086"/><path d="m443.684 276.066-37.547-83.608c-4.113-9.159-13.219-15.052-23.259-15.052h-27.971c10.041 0 19.146 5.893 23.26 15.052l37.547 83.608c2.909 6.478 2.909 13.892 0 20.37l-39.307 87.526c-3.162 7.04-9.342 12.27-16.809 14.222l-126.959 33.201 3.957 1.035c6.575 1.719 13.481 1.719 20.056 0l130.916-34.235c7.467-1.953 13.647-7.182 16.809-14.222l39.307-87.526c2.909-6.479 2.909-13.892 0-20.371z" fill="#e5646e"/><g><path d="m254.124 177.405v255.58c-4.96.96-10.04.96-15 0v-255.58z" fill="#e5646e"/></g></g></svg>