<svg id="Capa_1" enable-background="new 0 0 497 497" height="512" viewBox="0 0 497 497" width="512" xmlns="http://www.w3.org/2000/svg"><g><path d="m83.719 68.79-30.719 43.82-37.05 26.87c-.12-.11-.22-.22-.33-.34-2.62-2.8-3.68-6.19-3.93-7.1-.01-.05-.02-.09-.03-.12-.02-.07-.03-.11-.03-.11l-2.9-12.94-8.48-37.71c-1.42-6.34 3.4-12.37 9.9-12.37z" fill="#8d9ca8"/><path d="m83.719 68.79-30.719 43.82-37.05 26.87c-.12-.11-.22-.22-.33-.34-2.62-2.8-3.68-6.19-3.93-7.1-.01-.05-.02-.09-.03-.12-.02-.07-.03-.11-.03-.11l-2.91-12.93.01-.01 48.49-50.08z" fill="#7a8c98"/><path d="m497 315.34v60.62c0 3.22-.64 5.97-1.37 8.07l-19.69 7.13-3.96-1.34-17.09-5.79 19.23-40.63 14.2-30.01c2.08-4.4 8.68-2.92 8.68 1.95z" fill="#e2a975"/><path d="m497 315.34v60.62c0 3.22-.64 5.97-1.37 8.07l-11.79 4.46-7.34-4.46v-36.63c0-1.91-1.02-3.29-2.38-4l14.2-30.01c2.08-4.4 8.68-2.92 8.68 1.95z" fill="#d19a6e"/><path d="m495.63 384.03c-.06.18-.12.36-.19.53-.76 2.05-1.57 3.39-1.83 3.8-.04.06-.07.1-.08.12l-.01.01-62.52 80.04c-1.44 1.85-3.2 3.12-4.92 3.99l-5.35-14.68-12.96-35.52 5.01-38.28v-.01z" fill="#f6d190"/><path d="m495.63 384.03c-.06.18-.12.36-.19.53-.76 2.05-1.57 3.39-1.83 3.8-.04.06-.07.1-.08.12l-.01.01-62.52 80.04c-1.44 1.85-3.2 3.12-4.92 3.99l-5.51-14.32.16-.36 2.33-5.39 48.92-62.63 4.52-5.79z" fill="#ecbd83"/><path d="m227.871 474.462h-83.913c-9.249 0-16.52-7.911-15.741-17.127l28.863-341.705h133.066l105.402 153.776z" fill="#f6d190"/><path d="m395.548 269.406-105.402-153.776h-26.5l100.908 147.22c2.957 4.315 4.898 9.243 5.675 14.416l2.933 19.516z" fill="#ecbd83"/><path d="m426.08 472.52c-.11.07-.23.12-.34.17-3.57 1.72-6.9 1.77-6.9 1.77h-190.97l61.12-148.43c2.44-5.91 7.02-10.68 12.82-13.36l68.96-31.82v-.01l24.78-11.43 17.23 114.62v.01l10.28 68.41z" fill="#e2a975"/><path d="m426.08 472.52c-.11.07-.23.12-.34.17-3.57 1.72-6.9 1.77-6.9 1.77h-18.97l-29.1-193.61v-.01l24.78-11.43 17.23 114.62v.01l10.28 68.41z" fill="#d19a6e"/><path d="m211.359 95.34-11.75 84.71-177.5-37.19c-.02 0-.03-.01-.05-.01-2.61-.56-4.6-1.86-6.11-3.37-.12-.11-.22-.22-.33-.34l68.1-70.35 35.54-37.31c5.44-5.71 12.98-8.94 20.87-8.94h59.48z" fill="#e2a975"/><path d="m173.113 22.538v151.961l26.5 5.553 11.742-84.714-11.742-72.8z" fill="#d19a6e"/><path d="m199.613 22.538v241.742c0 5.74 4.653 10.393 10.393 10.393h95.45c6.452 0 11.345-5.818 10.24-12.175l-25.55-146.863-37.868-83.788c-2.561-5.667-8.204-9.309-14.423-9.309z" fill="#8d9ca8"/><path d="m315.697 262.498-25.55-146.863-37.868-83.788c-2.561-5.667-8.204-9.309-14.423-9.309h-26.5c6.219 0 11.861 3.642 14.423 9.309l37.868 83.788 25.55 146.863c1.106 6.357-3.787 12.175-10.24 12.175h26.5c6.452 0 11.345-5.818 10.24-12.175z" fill="#7a8c98"/></g></svg>