<svg id="Capa_1" enable-background="new 0 0 497 497" height="512" viewBox="0 0 497 497" width="512" xmlns="http://www.w3.org/2000/svg"><g><path d="m192.841 292.741h-104.298c-6.315 0-12.308-2.775-16.401-7.582l-67.243-78.969c-3.982-4.676-5.661-10.89-4.575-16.934l19.85-110.955 3.107-17.397c.784-4.414 3.349-8.135 6.878-10.468l76.348 92.083z" fill="#ff9a9f"/><path d="m192.841 292.741h-30.811l-141.856-214.44 3.107-17.397c.784-4.414 3.349-8.135 6.878-10.468l76.348 92.083z" fill="#ff8086"/><path d="m192.841 292.741-162.682-242.305c2.534-1.679 5.571-2.655 8.799-2.655h45.341c4.113 0 8.085 1.498 11.182 4.213l60.254 52.873 29.251 79.885z" fill="#b6c4cf"/><path d="m130.95 111.709 24.862 125.878 37.03 55.153-7.855-107.987-29.251-79.885-60.255-52.873c-3.097-2.715-7.069-4.213-11.182-4.213h-26.136c4.113 0 8.085 1.498 11.182 4.213l55.013 48.274c3.398 2.982 5.716 7.004 6.592 11.44z" fill="#9facba"/><path d="m304.159 292.741h104.299c6.315 0 12.308-2.775 16.401-7.582l67.243-78.968c3.982-4.676 5.661-10.89 4.575-16.934l-22.958-128.352c-.784-4.414-3.349-8.135-6.878-10.468l-81.341 102.218z" fill="#ff9a9f"/><path d="m496.677 189.256-22.958-128.351c-.784-4.414-3.349-8.135-6.878-10.468l-17.253 21.681.567 3.171 20.385 113.968c1.086 6.044-.593 12.258-4.575 16.934l-67.243 78.968c-4.093 4.807-10.086 7.582-16.401 7.582h26.137c6.315 0 12.308-2.775 16.401-7.582l67.243-78.968c3.981-4.677 5.66-10.891 4.575-16.935z" fill="#ff8086"/><path d="m304.159 292.741 162.682-242.305c-2.534-1.679-5.571-2.655-8.799-2.655h-45.341c-4.113 0-8.085 1.498-11.182 4.213l-60.254 52.873-29.576 77.069z" fill="#b6c4cf"/><path d="m458.042 47.782h-26.137.097c4.468.027 7.035 5.137 4.544 8.847l-121.494 180.958-8.273 16.603-2.62 38.551 162.682-242.305c-2.534-1.679-5.571-2.654-8.799-2.654z" fill="#9facba"/><path d="m341.268 104.863-37.11 187.87-19.53 96.92-36.12 16.57-37.74-16.57c-3.75-8.38-5.03-14.78-5.24-15.93l-.03-.19-12.66-80.8-37.1-187.87 44.98-24.95c4.37-2.42 9.28-3.69 14.27-3.69h69.26c5.22 0 10.34 1.38 14.84 4.01z" fill="#8d9ca8"/><path d="m341.268 104.863-37.11 187.87-19.53 96.92-19.236 8.823-6.904-8.823 54.903-276.056c1.04-5.227-1.351-10.538-5.953-13.225l-34.48-20.139c-4.51-2.63-9.63-4.01-14.84-4.01h26.13c5.22 0 10.34 1.38 14.84 4.01z" fill="#7a8c98"/><path d="m401.7 354.895-25.29 34.763-39.318 16.566-28.749-16.566 87.988-41.269c4.072-1.91 8.023 2.866 5.369 6.506z" fill="#8d9ca8"/><path d="m396.33 348.389-30.924 14.504c1.334 1.403 1.788 3.639.383 5.565l-15.517 21.2-13.182 16.566 39.318-16.566 25.29-34.763c2.656-3.64-1.295-8.416-5.368-6.506z" fill="#7a8c98"/><path d="m376.408 389.653-41.52 52.18c-1.81 2.27-4.07 4.07-6.6 5.32-2.67 1.34-5.66 2.06-8.73 2.06h-57.59c-5.64 0-10.96-2.64-14.36-7.13l-27.08-35.86c-.03-.04-.06-.08-.09-.12-3.92-5.21-6.86-10.41-9.04-15.07-.22-.47-.43-.93-.63-1.38z" fill="#b6c4cf"/><g fill="#9facba"><path d="m350.273 389.658-41.52 52.179c-1.81 2.263-4.073 4.063-6.596 5.32-2.675 1.337-5.662 2.061-8.739 2.061h26.137c3.077 0 6.064-.724 8.739-2.061 2.524-1.257 4.786-3.057 6.596-5.32l41.52-52.179z"/><path d="m205.528 373.723-.03-.19s.01.06.03.19z"/></g></g></svg>