<svg id="Capa_1" enable-background="new 0 0 497.002 497.002" height="512" viewBox="0 0 497.002 497.002" width="512" xmlns="http://www.w3.org/2000/svg"><g><path d="m118.165 468.622c-2.45 2.23-5.79 4.4-10.27 5.73-.04.02-.07.03-.11.04l-75.71 22.31c-.94.28-1.85.35-2.72.26-.41-.04-.82-.12-1.21-.24-2.88-.86-4.97-3.57-4.98-6.62 0-.98.21-2 .68-3l24.62-52.33 9.19-19.53 37.39 15.62z" fill="#78c2a4"/><path d="m118.165 468.622c-2.45 2.23-5.79 4.4-10.27 5.73-.04.02-.07.03-.11.04l-75.71 22.31c-.94.28-1.85.35-2.72.26-.41-.04-.82-.12-1.21-.24-2.88-.86-4.97-3.57-4.98-6.62l59.09-17.42c2.99-.88 3.84-4.72 1.5-6.78l-35.29-31.13 9.19-19.53 37.39 15.62z" fill="#5aa0a5"/><path d="m151.545 382.763-27.48 77.71s0 .01-.01.04c-.16.39-1.59 3.95-5.27 7.51-.2.21-.4.4-.62.6l-21.58-19.04-38.93-34.34-31.71-27.97c-.01-.01-.03-.02-.04-.04-1.42-1.26-2.28-2.85-2.79-4.47l61.03-11.31 45.24 7.59h.01z" fill="#b3e59f"/><path d="m151.545 382.763-27.48 77.71s0 .01-.01.04c-.16.39-1.59 3.95-5.27 7.51-.2.21-.4.4-.62.6l-21.58-19.04 3.71-10.5 19.92-56.32 9.17-3.72h.01z" fill="#95d6a4"/><path d="m464.935 496.703-75.71-22.31c-.04-.01-.07-.02-.11-.04-4.48-1.33-7.82-3.5-10.27-5.73l20.56-35.5 39.95-17.88 33.81 71.86c2.55 5.41-2.5 11.3-8.23 9.6z" fill="#78c2a4"/><path d="m473.167 487.104-33.807-71.863-24.633 11.023 2.676 8.346 21.775 45.005c1.602 3.405.198 6.992-2.49 8.766l28.245 8.326c5.737 1.691 10.78-4.19 8.234-9.603z" fill="#5aa0a5"/><path d="m473.885 382.763c-.51 1.63-1.38 3.23-2.82 4.51h-.01l-31.7 27.97-60.51 53.38c-.23-.21-.46-.42-.67-.64-3.64-3.55-5.06-7.08-5.21-7.47-.02-.03-.02-.04-.02-.04l-3.85-10.89-23.63-66.82 58.73-9.62z" fill="#b3e59f"/><path d="m473.885 382.763c-.51 1.63-1.38 3.23-2.82 4.51h-.01l-31.7 27.97-60.51 53.38c-.23-.21-.46-.42-.67-.64-3.64-3.55-5.06-7.08-5.21-7.47-.02-.03-.02-.04-.02-.04l-3.85-10.89 75.75-66.82 6.046-3.196z" fill="#95d6a4"/><path d="m99.855 102.583-.01.01-19.44 25.6-29.02 8.66c-2.36-5.34-2.52-9.98-2.52-9.98v-97.38c0-4.32 5.71-5.84 7.86-2.1z" fill="#78c2a4"/><path d="m99.855 102.583-.01.01-19.44 25.6-29.02 8.66c-2.36-5.34-2.52-9.98-2.52-9.98v-5.44l23.43-16.56c1.84-1.3 2.4-3.78 1.3-5.75l-19.63-35.11c-1.15-2.01-3.33-2.49-5.1-1.85v-32.67c0-4.32 5.71-5.84 7.86-2.1z" fill="#5aa0a5"/><path d="m137.445 76.012-4.96 60.9-24.66 49.26-20-16.12-29.1-23.47c-3.3-2.66-5.49-5.87-6.96-8.91-.13-.28-.26-.55-.38-.82l48.46-34.26.01-.01 7.56-5.34z" fill="#e1ffa0"/><path d="m137.445 76.012-4.956 60.905-24.664 49.255-20-16.12 19.59-72.81z" fill="#ccf49f"/><path d="m448.145 30.412v96.46s-.16 4.64-2.52 9.98l-29.61-7.82-16.55-24.81 22.41-41.67 18.35-34.14c2.07-3.85 7.92-2.379 7.92 2z" fill="#78c2a4"/><path d="m448.145 30.412v96.46s-.16 4.64-2.52 9.98l-15.971-4.218-5.839-11.202-.01-55.32c0-1.63-.81-2.86-1.93-3.56l18.35-34.14c2.07-3.85 7.92-2.379 7.92 2z" fill="#5aa0a5"/><path d="m445.625 136.852c-.13.29-.27.6-.42.9-1.43 2.96-3.56 6.07-6.73 8.67-.06.06-.12.11-.18.16l-49.11 39.59-9.19-17.84-16.91-32.82-2.15-36.39-1.37-23.11 39.9 28.21 24.35 17.21z" fill="#e1ffa0"/><path d="m445.625 136.852c-.13.29-.27.6-.42.9-1.43 2.96-3.56 6.07-6.73 8.67-.06.06-.12.11-.18.16l-49.11 39.59-9.19-17.84 32.28-26.04c2.28-1.84 2.17-5.34-.22-7.03l-51.12-36.14-1.37-23.11 39.9 28.21 24.35 17.21z" fill="#ccf49f"/><path d="m420.795 303.662-176.37 19.366-168.21-19.366 16.11-59.88 45.13-167.78 82.21-61.51 11.82-8.84c3.91-2.9 8.36-4.69 12.94-5.36 2.7-.39 5.46-.39 8.16 0 4.58.67 9.03 2.46 12.94 5.36l94.03 70.35z" fill="#b3e59f"/><path d="m359.558 76.007-94.037-70.35c-3.904-2.905-8.359-4.696-12.94-5.362-2.698-.39-5.454-.39-8.152 0-4.061.59-8.021 2.069-11.588 4.42.354.234 57.607 43.04 83.233 62.201 7.876 5.889 13.544 14.252 16.099 23.749l57.29 212.993 5.976 2.784 25.353-2.784z" fill="#95d6a4"/><path d="m420.791 303.659-176.366 19.369-168.206-19.369 168.21-303.364c2.698-.39 5.454-.39 8.152 0z" fill="#b3e59f"/><path d="m252.581.295c-2.698-.39-5.454-.39-8.152 0l-11.588 20.9 156.622 282.464 5.976 2.784 25.353-2.784z" fill="#95d6a4"/><path d="m473.975 382.472c-.02.1-.05.19-.09.29h-450.77c-.04-.13-.08-.26-.11-.39-.97-3.45-.4-6.93-.26-7.69.02-.1.03-.15.03-.15l14.12-59.74c1.54-6.53 7.36-11.13 14.06-11.13h395.1c6.7 0 12.52 4.6 14.06 11.13l14.11 59.73c0 .001.88 4.02-.25 7.95z" fill="#e1ffa0"/><path d="m473.975 382.472c-.02.1-.05.19-.09.29h-29.04l-1.02-4.32-15.03-63.65c-1.54-6.53-7.37-11.13-14.07-11.13h31.33c6.7 0 12.52 4.6 14.06 11.13l14.11 59.73c0 .001.88 4.02-.25 7.95z" fill="#ccf49f"/><g><path d="m244.425.292-168.21 303.37 16.11-59.88 127.34-229.29 11.82-8.84c3.91-2.9 8.36-4.689 12.94-5.36z" fill="#95d6a4"/></g></g></svg>