<svg id="Capa_1" enable-background="new 0 0 497 497" height="512" viewBox="0 0 497 497" width="512" xmlns="http://www.w3.org/2000/svg"><g><path d="m254.963 478.749h-61.908c-4.866 0-7.067-7.018-3.328-10.61l41.597-39.955 20.882 13.371z" fill="#7a8c98"/><path d="m252.206 35.908 43.23-16.013c4.4-2.585 9.687-2.093 13.67 1.272l27.642 23.35c4.487 3.791 7.139 9.822 7.139 16.238v36.883c0 5.886-2.967 11.235-7.599 13.703l-44.993 23.966-36.949-49.179z" fill="#b6c4cf"/><path d="m336.748 44.518-27.642-23.35c-3.984-3.365-9.27-3.857-13.67-1.272l-12.455 4.613 23.687 20.01c4.487 3.791 7.139 9.822 7.139 16.238v36.883c0 5.886-2.967 11.236-7.599 13.703l-20.123 10.718-.481 5.674 5.69 7.573 44.993-23.966c4.633-2.468 7.599-7.817 7.599-13.703v-36.883c.001-6.416-2.651-12.447-7.138-16.238z" fill="#9facba"/><path d="m91.681 35.908-43.23-16.013c-4.4-2.585-9.687-2.093-13.67 1.272l-27.642 23.351c-4.487 3.791-7.139 9.822-7.139 16.238v36.883c0 5.886 2.967 11.235 7.6 13.703l44.993 23.966 35.445-48.052z" fill="#b6c4cf"/><path d="m48.452 19.896c-4.4-2.585-9.687-2.093-13.67 1.272l-8.038 6.79c3.022-1.407 6.143-.861 11.082.419l14.638 4.636c4.944 1.566 7.528 6.99 5.63 11.816l-30.371 77.231 24.87 13.247 35.445-48.052 3.644-51.347z" fill="#9facba"/><path d="m497 324.783-242.037 153.966-121.171-259.185 168.818-55.478 145.36 38.738c7.817 2.083 14.172 8.623 16.854 17.345z" fill="#b6c4cf"/><path d="m464.823 220.169c-2.682-8.721-9.038-15.261-16.854-17.344l-145.36-38.738-13.47 4.427 128.749 34.311c7.817 2.083 14.172 8.623 16.854 17.344l32.177 104.614-6.849 23.491 36.93-23.491z" fill="#9facba"/><path d="m269.802 219.56v97.919c0 11.426-8.03 20.689-17.937 20.689h-149.299c-5.119 0-7.159-7.633-2.929-10.957l140.084-107.651 15.241-7.856z" fill="#8d9ca8"/><path d="m239.722 219.561v97.919c0 11.427-8.031 20.689-17.937 20.689h30.08c9.906 0 17.937-9.263 17.937-20.689v-97.919l-14.839-7.856z" fill="#7a8c98"/><path d="m269.802 219.56h-72.529l-26.235-8.137-26.235 8.137h-59.487c-6.961 0-13.404-3.675-16.948-9.667l-22.15-37.456c-3.068-5.188-3.568-11.847-1.319-17.566l46.783-118.963h160.524l50.404 128.174z" fill="#edf4ff"/><path d="m252.206 35.908h-30.08l50.404 128.174-32.808 55.479h30.08l32.808-55.479z" fill="#dbeaff"/><path d="m497 324.783-39.507 135.503c-3.216 11.032-12.18 18.463-22.27 18.463h-180.26l98.826-141.269c5.617-8.029 14.081-12.697 23.026-12.697z" fill="#8d9ca8"/><path d="m466.92 324.783-39.507 135.503c-3.216 11.032-12.18 18.463-22.27 18.463h30.08c10.09 0 19.054-7.431 22.27-18.463l39.507-135.503z" fill="#7a8c98"/><g><path d="m161.195 190.781c-2.836 0-5.55-1.617-6.815-4.361l-30.917-68.052c-1.735-3.762-.092-8.217 3.67-9.951 3.763-1.733 8.217-.091 9.951 3.67l30.916 68.052c1.735 3.762.092 8.217-3.67 9.951-1.017.469-2.085.691-3.135.691z" fill="#dbeaff"/></g><g><path d="m182.945 190.781c-.824 0-1.663-.137-2.484-.426-3.908-1.372-5.964-5.652-4.592-9.561l23.62-67.794c1.373-3.907 5.651-5.966 9.561-4.592 3.908 1.372 5.964 5.652 4.592 9.561l-23.62 67.794c-1.083 3.087-3.981 5.018-7.077 5.018z" fill="#dbeaff"/></g><path d="m197.273 219.56h-52.47l6.487-53.048c.315-2.575 2.501-4.51 5.096-4.51h29.305c2.594 0 4.781 1.935 5.096 4.51z" fill="#8bb3ea"/><path d="m185.691 162.002h-24.072c1.542.607 2.627 2.01 2.828 3.655l6.592 53.904h26.235l-6.487-53.048c-.316-2.576-2.502-4.511-5.096-4.511z" fill="#739ad6"/></g></svg>