<svg id="Capa_1" enable-background="new 0 0 504.5 504.5" height="512" viewBox="0 0 504.5 504.5" width="512" xmlns="http://www.w3.org/2000/svg"><g><path d="m197.466 82.328 74.644 34.965c9.117 4.27 17.42 10.095 24.539 17.214l7.698 7.698c6.43 6.43 6.43 16.855 0 23.284l-22.728 22.728-93.059 93.059-22.775 22.775c-6.43 6.43-16.855 6.43-23.284 0l-7.698-7.698c-7.119-7.119-12.943-15.422-17.214-24.539l-34.965-74.644.345.186z" fill="#b8daff"/><g><path d="m82.909 197.325-.285-.154.14.299z" fill="#b8daff"/><path d="m304.347 142.206-7.698-7.698c-7.119-7.119-15.422-12.944-24.539-17.214l-74.644-34.965-19.826 19.918 74.581 34.936c9.117 4.271 17.42 10.095 24.539 17.214l7.698 7.698c6.43 6.43 6.43 16.854.001 23.284l19.888-19.888c6.43-6.431 6.43-16.855 0-23.285z" fill="#a4ccff"/></g><path d="m82.67 197.13-64.521-112.116c-4.106-7.134-2.914-16.136 2.906-21.956l42.343-42.343c5.82-5.82 14.822-7.012 21.956-2.906l112.116 64.522-41.57 73.234z" fill="#db4655"/><path d="m85.354 17.809c-7.134-4.106-16.136-2.914-21.956 2.906l-19.889 19.889c5.82-5.82 14.822-7.012 21.956-2.906l112.116 64.521 6.793 3.182 13.095-23.07z" fill="#bd4150"/><path d="m339.533 401.264 8.486 69.913c.743 6.125 3.518 11.824 7.881 16.187l14.364 14.364c4.905 4.905 13.306 1.951 14.062-4.944l17.279-157.592z" fill="#db4655"/><path d="m401.6 339.19-19.884 41.162-42.186 20.908-57.98-46.08-2.1-8.615-16.78-6.385-55.92-44.44-3.394-8.49-15.476-6.51-65.36-51.94 106.61-106.63 51.95 65.37 4.076 13.312 10.924 5.558 44.43 55.91 7.5 18.173 7.5.697z" fill="#edf4ff"/><path d="m229.13 122.17-19.888 19.889 172.469 217.02 9.711 1.18 10.178-21.069-46.09-58-7.5-.697-7.5-18.173-44.43-55.91-10.924-5.558-4.076-13.312z" fill="#dbeaff"/><path d="m401.604 339.192 69.913 8.486c6.125.743 11.824 3.518 16.187 7.881l14.364 14.364c4.905 4.905 1.951 13.306-4.944 14.062l-157.592 17.279z" fill="#ff8086"/><path d="m502.068 369.923-14.364-14.364c-4.363-4.363-10.062-7.138-16.187-7.881l-69.913-8.486-19.889 19.889 69.913 8.486c6.125.743 11.824 3.518 16.187 7.881l10.59 10.59 18.718-2.052c6.897-.756 9.851-9.157 4.945-14.063z" fill="#e5646e"/><g><path d="m229.13 122.17v.01 86.51c0 11.1-9 20.11-20.11 20.11h-86.5l-39.85-31.67 114.8-114.8z" fill="#ff8086"/></g><path d="m197.47 82.33-19.889 19.889 24.454 30.78c4.666 5.873 7.206 13.153 7.206 20.654v55.034c0 11.1-9 20.11-20.11 20.11l-.016.004h19.905c11.11 0 20.11-9.01 20.11-20.11v-86.51s0 0 0-.01z" fill="#e5646e"/><g><path d="m7.5 126.808c-1.919 0-3.839-.732-5.303-2.197-2.929-2.929-2.929-7.678 0-10.606l111.467-111.468c2.929-2.929 7.678-2.929 10.606 0 2.929 2.929 2.929 7.678 0 10.606l-111.467 111.468c-1.464 1.464-3.383 2.197-5.303 2.197z" fill="#ff8086"/></g><g><g><path d="m296.08 206.41v61.72c0 15.22-12.39 27.61-27.61 27.61h-61.72l-18.87-15h80.59c6.95 0 12.61-5.66 12.61-12.61v-80.59z" fill="#ff8086"/></g><g><path d="m355.51 281.19v46.38c0 15.22-12.38 27.61-27.61 27.61h-46.35l-18.88-15h65.23c6.96 0 12.61-5.66 12.61-12.61v-65.25z" fill="#ff8086"/></g><g fill="#e5646e"><path d="m281.08 187.54 15 18.87v44.92l-15-18.87z"/><path d="m355.51 281.19v44.92l-15-18.87v-44.92z"/></g></g></g></svg>