<svg id="Capa_1" enable-background="new 0 0 493.366 493.366" height="512" viewBox="0 0 493.366 493.366" width="512" xmlns="http://www.w3.org/2000/svg"><g><path d="m346.042 446.702-28.193 40.271c-2.805 4.007-7.389 6.393-12.28 6.393h-91.928c-5.277 0-8.224-6.092-4.948-10.229l28.847-36.435 51.378-11.751z" fill="#b6c4cf"/><path d="m318.529 446.702-28.193 40.271c-2.805 4.007-7.389 6.393-12.28 6.393h27.513c4.891 0 9.475-2.386 12.28-6.393l28.193-40.271-17.555-3.611z" fill="#9facba"/><path d="m121.477 256.236-35.204 119.381c-1.665 5.892 5.071 10.554 9.999 6.921l72.104-49.336-12.072-45.817z" fill="#8d9ca8"/><path d="m343.183 6.336-18.07 63.03c-2.64 9.21-9.82 16.42-19.01 19.11l-163.3 47.71-8.03-26.99 205.77-109.04c2.22.46 3.83 2.05 2.64 6.18z" fill="#ff9a9f"/><path d="m343.183 6.336-18.07 63.03c-2.64 9.21-9.82 16.42-19.01 19.11l-163.3 47.71 2.8-8.86 17.52-5.12 115.46-33.73c9.2-2.69 16.38-9.9 19.02-19.11l14.16-49.42 1.538-5.354 27.242-14.436c2.217.476 3.83 2.05 2.64 6.18z" fill="#ff8086"/><path d="m340.543.156-28.78 19.79-148.64 102.26-20.32 13.98-8.03-26.99 31.47-47.21 100.76-36.77 66.51-24.28s.1-.03.27-.09c.79-.24 3.21-.92 5.45-.84.45.01.89.06 1.31.15z" fill="#b6c4cf"/><path d="m340.543.156-28.78 19.79-148.64 102.26-20.32 13.98-8.03-26.99 132.23-83.98 66.51-24.28s.1-.03.27-.09c.79-.24 3.21-.92 5.45-.84.45.01.89.06 1.31.15z" fill="#9facba"/><path d="m237.537 446.706-116.06-190.47v-125l260.44 60.32c6.01 1.39 11.22 4.62 15.07 9z" fill="#b6c4cf"/><path d="m396.987 200.556c-3.85-4.38-9.06-7.61-15.07-9l-260.44-60.32v6.372l232.927 53.948c6.01 1.39 11.22 4.62 15.07 9 4.53 5.12 7.21 11.82 7.21 19.03v12.313z" fill="#9facba"/><path d="m121.477 196.266-105.92-21.827c-9.256-1.907-13.593-12.616-8.273-20.426l41.886-61.496c4.293-6.303 10.921-10.636 18.417-12.041l98.659-18.486-23.441 74.193z" fill="#8d9ca8"/><path d="m137.001 67.47-21.709 68.713-19.452 54.8 25.637 5.283 21.328-60.083 23.441-74.193z" fill="#7a8c98"/><path d="m404.199 358.909 47.606 16.343c5.885 2.02 12.353-.661 15.083-6.252l19.987-40.938c2.176-4.457 2.002-9.703-.464-14.006l-19.44-33.921c-2.848-4.969-8.743-7.323-14.23-5.682l-48.541 14.519-11.762 35.956z" fill="#edf4ff"/><path d="m486.411 314.055-19.44-33.921c-2.848-4.969-8.743-7.323-14.23-5.682l-14.246 4.261c.348.448.675.917.963 1.421l19.44 33.921c2.466 4.303 2.64 9.549.464 14.006l-19.987 40.938c-.285.584-.62 1.129-.982 1.648l13.412 4.604c5.885 2.02 12.353-.661 15.083-6.252l19.987-40.938c2.176-4.457 2.002-9.702-.464-14.006z" fill="#dbeaff"/><path d="m404.197 219.586v139.32l-58.15 87.8h-108.51l51.377-178.117c2.278-7.896 7.656-14.533 14.909-18.398l93.164-49.635c4.53 5.12 7.21 11.82 7.21 19.03z" fill="#8d9ca8"/><path d="m396.987 200.556-21.343 11.371c.677 2.45 1.04 5.02 1.04 7.659v131.751c0 4.937-1.454 9.764-4.18 13.88l-53.97 81.489h27.513l58.15-87.8v-139.32c0-7.21-2.68-13.91-7.21-19.03z" fill="#7a8c98"/></g></svg>